<svg width="250" height="250" viewBox="0 0 250 250" fill="none" xmlns="http://www.w3.org/2000/svg">
<g clip-path="url(#clip0_343_13150)">
<path d="M151.369 227.671C150.869 227.671 150.37 227.669 149.868 227.663C127.476 227.437 106.592 222.164 91.0611 212.817C75.6275 203.529 67.2466 191.253 67.4621 178.252C67.5702 171.715 69.838 165.366 74.2021 159.383C78.6834 153.239 85.1848 147.766 93.5252 143.116C109.707 134.093 130.947 129.244 153.336 129.475C175.728 129.702 196.613 134.974 212.143 144.321C227.577 153.61 235.958 165.885 235.742 178.886C235.634 185.424 233.366 191.772 229.002 197.756C224.521 203.899 218.019 209.372 209.679 214.023C193.86 222.844 173.204 227.671 151.369 227.671ZM151.863 131.201C131.173 131.201 110.439 135.657 94.3643 144.621C78.3384 153.557 69.3961 165.511 69.1848 178.281C68.9802 190.642 77.0648 202.383 91.9498 211.342C108.086 221.053 129.69 225.937 151.342 225.938C172.032 225.939 192.765 221.482 208.84 212.518C224.866 203.582 233.808 191.628 234.019 178.858C234.224 166.497 226.139 154.756 211.254 145.797C195.118 136.086 173.514 131.201 151.863 131.201Z" fill="url(#paint0_linear_343_13150)"/>
<path d="M46.4997 187.043L110.522 149.973C113.296 148.372 112.945 145.549 109.742 143.7L106.982 142.106C103.78 140.257 98.8897 140.055 96.1161 141.656L32.0933 178.726C29.3197 180.327 29.6706 183.15 32.8733 184.999L35.6329 186.592C38.8356 188.442 43.7256 188.645 46.4997 187.043Z" fill="#D2D6E2"/>
<path d="M45.1936 175.348L112.956 135.885L112.953 136.879L45.1909 176.343L45.1936 175.348Z" fill="#B6B8CA"/>
<path d="M35.3989 159.796L103.161 120.333C103.783 126.327 107.995 133.021 112.956 135.885L45.1935 175.349C40.233 172.485 36.0212 165.791 35.3989 159.796Z" fill="#DDDFEB"/>
<path d="M15.7798 63.8587L83.5421 24.395C84.4739 24.6387 85.4416 25.0464 86.4166 25.6096L18.6543 65.0732C17.6793 64.51 16.7121 64.1023 15.7798 63.8587Z" fill="#DDDFEB"/>
<path d="M29.3164 82.0867L97.0787 42.623L103.161 120.332L35.3987 159.796L29.3164 82.0867Z" fill="#DDDFEB"/>
<path d="M18.6543 65.073L86.4166 25.6094C91.8447 28.7435 96.4284 36.0576 97.0788 42.6235L29.3166 82.0871C28.6666 75.5212 24.0825 68.2071 18.6543 65.073Z" fill="#E7E8F5"/>
<path d="M18.6543 65.0734C24.0825 68.2075 28.6662 75.5216 29.3166 82.0875L35.3993 159.797C36.0211 165.791 40.2334 172.485 45.1939 175.349L45.1912 176.344C39.7971 173.23 35.218 165.952 34.538 159.413L28.4552 81.7012C27.8584 75.6762 23.6434 68.9516 18.6516 66.0698C17.7548 65.5521 16.8652 65.1748 16.008 64.953L15.7798 63.8589C16.7121 64.1025 17.6793 64.5102 18.6543 65.0734Z" fill="#B6B8CA"/>
<path d="M37.3799 102.442L38.4494 115.408L49.4335 108.884L48.364 95.918L37.3799 102.442ZM47.7826 108.002L39.8072 112.739L39.0308 103.324L47.0062 98.5871L47.7826 108.002Z" fill="#BDC0E6"/>
<path d="M89.9194 73.6055L52.8831 95.6142L52.6958 93.3451L89.7326 71.3364L89.9194 73.6055Z" fill="#C7C8D9"/>
<path d="M74.9062 65.4725L46.8067 82.2071L45.8931 79.2312L73.9926 62.4971L74.9062 65.4725Z" fill="#C7C8D9"/>
<path d="M82.0163 54.6912L45.1099 76.6803L44.1963 73.7049L81.1027 51.7153L82.0163 54.6912Z" fill="#C7C8D9"/>
<path d="M86.396 82.4991L53.4178 102.097L53.231 99.8282L86.2087 80.23L86.396 82.4991Z" fill="#C7C8D9"/>
<path d="M39.0469 122.651L40.1164 135.617L51.1005 129.093L50.031 116.126L39.0469 122.651ZM49.4496 128.211L41.4741 132.947L40.6978 123.532L48.6732 118.796L49.4496 128.211Z" fill="#BDC0E6"/>
<path d="M91.5864 93.8135L54.5501 115.822L54.3628 113.553L91.3996 91.5444L91.5864 93.8135Z" fill="#C7C8D9"/>
<path d="M88.0624 102.707L55.0842 122.305L54.897 120.036L87.8752 100.438L88.0624 102.707Z" fill="#C7C8D9"/>
<path d="M40.7134 142.859L41.7829 155.825L52.7666 149.301L51.697 136.334L40.7134 142.859ZM51.1161 148.419L43.1406 153.155L42.3643 143.74L50.3397 139.004L51.1161 148.419Z" fill="#BDC0E6"/>
<path d="M93.2529 114.022L56.2166 136.03L56.0293 133.762L93.0661 111.752L93.2529 114.022Z" fill="#C7C8D9"/>
<path d="M89.7294 122.915L56.7512 142.513L56.564 140.245L89.5422 120.646L89.7294 122.915Z" fill="#C7C8D9"/>
<path d="M37.27 108.021L38.9237 103.843L42.6568 104.649L48.3223 90.3398L51.1232 90.8326L43.5905 109.604L37.27 108.021Z" fill="#43A048"/>
<path d="M38.9487 128.375L40.6024 124.197L44.336 125.003L50.001 110.693L52.8019 111.186L45.2692 129.958L38.9487 128.375Z" fill="#43A048"/>
<path d="M40.6274 148.729L42.2815 144.55L46.0147 145.356L51.6802 131.047L54.4811 131.54L46.9484 150.312L40.6274 148.729Z" fill="#43A048"/>
<path d="M204.209 149.235C232.083 166.012 231.127 192.745 202.073 208.945C173.02 225.146 126.87 224.679 98.9955 207.903C71.1209 191.126 72.0768 164.394 101.131 148.193C130.185 131.992 176.335 132.459 204.209 149.235Z" fill="url(#paint1_linear_343_13150)"/>
<path d="M224.397 176.158C224.225 173.067 223.947 169.531 223.554 166.762C223.189 164.196 222.372 160.825 221.663 158.332C220.945 155.804 219.802 152.479 218.739 150.076C217.407 147.061 215.324 143.18 213.698 140.313C212.374 137.978 210.236 135.081 208.54 132.999C206.633 130.658 203.862 127.723 201.714 125.6C199.614 123.526 196.47 121.129 194.119 119.346C192.711 118.279 190.706 117.032 189.199 116.11H189.199C186.905 114.777 183.786 113.092 181.362 112.013C180.015 111.414 178.193 110.673 176.812 110.157C175.605 109.705 173.981 109.141 172.742 108.789C171.689 108.491 170.293 108.058 169.224 107.819C168.182 107.586 166.797 107.251 165.749 107.043C164.7 106.836 163.293 106.601 162.236 106.439C161.227 106.284 159.877 106.102 158.859 106.023C156.909 105.87 154.303 105.698 152.345 105.666C151.37 105.649 150.069 105.671 149.094 105.705C148.118 105.738 146.819 105.833 145.843 105.888C144.849 105.945 143.529 106.097 142.542 106.224C141.532 106.355 140.186 106.549 139.182 106.723C138.149 106.903 136.781 107.196 135.753 107.401C134.7 107.61 133.321 107.999 132.28 108.264C131.14 108.554 129.644 109.031 128.529 109.406C127.321 109.813 125.719 110.387 124.539 110.871C123.371 111.35 121.819 112.005 120.679 112.549C119.285 113.213 117.442 114.135 116.099 114.897C114.883 115.587 113.27 116.524 112.103 117.294C110.525 118.334 108.459 119.781 106.957 120.927C104.57 122.747 101.625 125.476 99.4781 127.573C97.7522 129.26 95.6399 131.703 94.1736 133.619C92.3972 135.941 90.1668 139.151 88.6904 141.674C87.0195 144.528 85.1754 148.549 83.8508 151.579C83.1127 153.268 82.3036 155.599 81.8245 157.379C80.9336 160.688 79.8804 165.148 79.3849 168.539C79.0145 171.076 78.8445 174.353 78.749 177.156C79.4181 166.58 86.9072 156.124 101.131 148.193C130.184 131.993 176.334 132.46 204.209 149.236C216.792 156.809 223.496 166.411 224.397 176.158Z" fill="#A6FF9E"/>
<path d="M78.7494 177.155C78.7148 177.697 78.698 178.239 78.6998 178.782C78.7139 178.266 78.7303 177.719 78.7494 177.155Z" fill="#00AD00"/>
<path d="M223.953 169.553C223.622 166.89 223.018 163.349 222.316 160.76C221.433 157.498 220.015 153.207 218.74 150.076C217.696 147.514 215.974 144.238 214.609 141.832C213.071 139.121 210.684 135.697 208.746 133.257C206.806 130.815 203.906 127.819 201.714 125.6C200.436 124.306 198.584 122.726 197.135 121.627C194.825 119.875 191.633 117.685 189.199 116.11C189.076 116.036 188.952 115.964 188.828 115.892C188.796 115.873 188.763 115.854 188.731 115.836C187.394 115.058 185.74 114.149 184.446 113.483C183.296 112.891 181.723 112.176 180.54 111.651C179.325 111.113 177.672 110.471 176.424 110.014C175.283 109.597 173.749 109.072 172.58 108.741C171.528 108.443 170.132 108.017 169.064 107.78C168.023 107.548 166.639 107.218 165.591 107.013C164.574 106.814 163.21 106.588 162.184 106.432C161.188 106.281 159.856 106.101 158.852 106.023C156.901 105.871 154.295 105.698 152.338 105.666C151.364 105.65 150.065 105.672 149.092 105.705C148.116 105.739 146.816 105.833 145.841 105.889C144.837 105.946 143.504 106.099 142.508 106.229C141.471 106.364 140.092 106.565 139.062 106.744C138.028 106.925 136.66 107.222 135.631 107.428C134.577 107.638 133.198 108.033 132.157 108.298C130.959 108.603 129.387 109.109 128.218 109.511C126.897 109.964 125.152 110.616 123.861 111.147C121.469 112.129 118.37 113.659 116.099 114.897C114.463 115.788 112.363 117.121 110.809 118.146C109.619 118.931 108.103 120.081 106.956 120.928C105.092 122.304 102.761 124.348 101.104 125.967C99.0883 127.936 96.5019 130.677 94.7546 132.888C92.7687 135.401 90.3078 138.91 88.6896 141.675C85.9669 146.326 84.5756 149.786 83.6551 152.076C82.5428 154.843 81.4683 158.685 80.6928 161.564C79.7951 164.899 79.311 169.508 78.9137 172.939C78.7119 174.682 78.7633 177.03 78.6987 178.783C78.7283 189.274 85.466 199.762 98.9946 207.904C126.869 224.68 173.018 225.147 202.072 208.947C217.025 200.609 224.536 189.482 224.504 178.358C224.444 175.711 224.279 172.179 223.953 169.553Z" fill="#43A048"/>
<path d="M185.239 160.015C185.239 160.256 185.258 160.482 185.308 160.639C185.308 160.649 185.313 160.653 185.313 160.663C185.336 160.728 185.364 160.778 185.401 160.815C185.428 160.843 185.466 160.875 185.511 160.908C185.692 161.046 186.001 161.222 186.366 161.287C186.501 161.31 186.639 161.319 186.782 161.305H186.787C186.81 161.305 186.838 161.305 186.866 161.296H186.87C187.023 161.278 187.18 161.232 187.332 161.153C187.365 161.134 187.402 161.116 187.439 161.093H187.443C187.48 161.074 187.517 161.051 187.554 161.029C187.554 161.029 187.559 161.029 187.559 161.024C188.252 160.599 189.061 159.79 189.408 159.078C189.459 158.972 189.5 158.865 189.528 158.759C189.565 158.63 189.592 158.496 189.606 158.357C189.611 158.325 189.616 158.288 189.616 158.26C189.63 158.144 189.634 158.038 189.634 157.936C189.634 157.853 189.634 157.774 189.625 157.7C189.625 157.654 189.621 157.608 189.611 157.562C189.597 157.409 189.57 157.261 189.528 157.123C189.528 157.118 189.524 157.109 189.524 157.109C189.445 156.804 189.311 156.55 189.136 156.402C188.987 156.277 188.816 156.226 188.595 156.254C188.137 156.309 187.471 156.712 186.349 157.474C185.882 157.794 185.443 158.343 185.304 158.843C185.3 158.856 185.295 158.87 185.291 158.884C185.272 158.963 185.263 159.041 185.258 159.119C185.258 159.226 185.249 159.35 185.244 159.475V159.48C185.239 159.655 185.235 159.84 185.239 160.015Z" fill="#133524"/>
<path d="M186.154 159.585V159.738L186.158 159.743C186.154 159.752 186.154 159.761 186.158 159.775C186.163 160.112 186.218 160.427 186.325 160.672V160.676L186.329 160.681C186.417 160.894 186.547 161.05 186.722 161.129C186.907 161.212 187.142 161.212 187.434 161.087V161.083C187.471 161.069 187.512 161.05 187.554 161.027C187.554 161.027 187.559 161.027 187.559 161.023C188.363 160.607 189.075 159.844 189.407 159.077C189.458 158.97 189.5 158.864 189.527 158.758C189.569 158.633 189.592 158.508 189.606 158.384V158.356C189.611 158.324 189.615 158.286 189.615 158.259C189.629 158.143 189.634 158.037 189.634 157.935C189.634 157.852 189.634 157.773 189.625 157.699C189.625 157.658 189.625 157.611 189.616 157.575V157.57C189.602 157.39 189.569 157.242 189.528 157.122C189.528 157.117 189.523 157.108 189.523 157.108C189.454 156.914 189.357 156.803 189.255 156.785C189.2 156.775 189.126 156.78 189.033 156.794C188.645 156.858 187.989 157.14 187.536 157.524C186.982 157.996 186.172 158.536 186.154 159.585Z" fill="#3A5749"/>
<path d="M99.0689 169.897L166.164 209.022C166.164 209.022 172.31 212.125 178.401 212.526C184.492 212.926 189.784 210.216 193.482 208.528C197.179 206.839 205.691 201.94 207.458 200.289C209.226 198.637 214.07 195.152 209.277 190.455C204.484 185.758 126.054 145.052 119.699 144.794C113.344 144.536 93.9721 160.79 93.483 163.616C93.0176 166.308 95.4889 167.83 99.0689 169.897Z" fill="#299729"/>
<path d="M158.969 199.048L164.238 195.747L176.735 203.615L179.385 176.292L105.178 149.725L104.27 164.314L106.525 167.649L112.195 163.74L136.44 180.239L158.969 199.048Z" fill="#292929"/>
<path d="M176.544 204.605L175.347 206.139L169.554 198.691L170.751 197.157L176.544 204.605Z" fill="#FFCC00"/>
<path d="M175.969 204.937L174.772 206.471L168.979 199.023L170.176 197.489L175.969 204.937Z" fill="#FFCC00"/>
<path d="M167.111 189.174L161.338 192.506L169.97 207.39L175.758 204.047L173.898 193.811L167.111 189.174Z" fill="#333333"/>
<path d="M171.691 203.509C171.691 207.377 168.959 208.935 165.588 206.989C162.217 205.043 159.485 200.33 159.485 196.462C159.485 192.593 162.218 191.036 165.588 192.982C168.959 194.928 171.691 199.642 171.691 203.509Z" fill="#A89560"/>
<path d="M125.09 169.968C125.09 173.836 122.357 175.394 118.986 173.448C115.616 171.502 112.883 166.788 112.883 162.92C112.883 159.052 115.616 157.494 118.986 159.44C122.357 161.387 125.09 166.1 125.09 169.968Z" fill="#333333"/>
<path d="M114.762 158.951L108.989 162.282L117.621 177.167L123.409 173.824L121.549 163.588L114.762 158.951Z" fill="#333333"/>
<path d="M209.232 191.918L208.953 192.288L209.25 192.289H209.508L209.288 193.059L208.163 193.195L208.1 193.16L203.558 190.674L203.321 190.557L202.637 190.162V186.839C202.637 182.315 199.44 176.801 195.497 174.524C191.553 172.248 188.355 174.07 188.355 178.595V181.916L150.443 160.028L150.288 159.926V156.616C150.288 152.091 147.092 146.577 143.148 144.3C139.205 142.024 136.008 143.847 136.008 148.371V150.579L135.913 150.517C135.913 150.517 135.601 150.317 135.086 149.985C132.866 148.55 126.88 144.632 126.008 143.583C124.932 142.288 124.129 139.235 124.129 139.235L124.157 139.029H124.158L124.586 135.741L125.628 135.166L126.117 131.52L125.628 130.565L126.893 129.406L126.984 127.48L127.848 127.249L133.893 129.104C133.893 129.104 139.441 130.629 145.858 132.315C152.277 134.003 157.623 137.204 160.375 138.718C163.129 140.234 167.087 142.369 172.055 146.434C177.023 150.5 181.737 155.493 184.099 158.315C186.46 161.136 189.067 164.23 189.067 164.23C189.067 164.23 193.4 167.554 197.832 170.617C202.262 173.68 204.526 176.882 206.628 178.881C208.729 180.879 210.139 182.991 210.139 182.991L210.151 183.184L210.456 189.651L210.212 190.615L209.232 191.918Z" fill="#3A5749"/>
<path d="M210.151 183.185L209.299 182.387L200.845 175.487C200.845 175.487 192.146 167.953 186.02 164.099C179.896 160.245 151.73 143.273 145.638 139.7C139.544 136.125 133.827 133.217 133.827 133.217L126.893 129.406L126.984 127.481L127.848 127.25L133.892 129.105C133.892 129.105 139.434 130.585 145.841 132.312C147.872 132.859 149.64 133.26 151.418 134.01C155.253 135.625 158.495 137.685 160.375 138.719C163.128 140.235 167.087 142.37 172.055 146.435C177.023 150.5 181.736 155.494 184.098 158.315C186.46 161.137 189.067 164.231 189.067 164.231C189.067 164.231 193.399 167.555 197.831 170.618C202.262 173.68 204.525 176.883 206.627 178.881C208.728 180.879 210.138 182.992 210.138 182.992L210.151 183.185Z" fill="#133524"/>
<path d="M185.495 179.017L154.382 160.375L147.905 145.297L146.351 140.261L146.651 138.435L147.064 138.503L146.78 140.231L148.297 145.153L154.713 160.085L185.178 178.339L185.485 176.401L185.487 174.781C185.492 174.743 186.005 170.917 185.909 168.145C185.822 165.636 185.812 164.38 185.811 164.141L184.817 161.764L185.203 161.602L186.23 164.056V164.098C186.23 164.11 186.231 165.345 186.327 168.13C186.421 170.852 185.939 174.562 185.904 174.823L185.902 176.45L185.495 179.017Z" fill="#133524"/>
<path d="M142.579 132.457C142.579 132.457 142.017 133.992 142.005 134.055C141.993 134.118 144.119 136.747 144.119 136.747L186.819 163.587L187.276 163.365C187.276 163.365 180.934 155.823 176.439 151.208C171.943 146.594 166.127 142.769 163.227 141.132C160.328 139.495 152.687 135.361 150.049 134.566C147.409 133.772 142.579 132.457 142.579 132.457Z" fill="#AE9C55"/>
<path d="M150.047 134.566L146.924 138.511L149.401 140.068L152.381 135.443L150.047 134.566Z" fill="#292929"/>
<path d="M200.844 175.487L199.786 175.773L202.62 179.129L205.732 181.561L206.497 181.535L208.598 183.216L209.299 182.387L204.901 178.371L200.844 175.487Z" fill="#F78459"/>
<path d="M210.17 183.487L209.405 184.756L209.299 187.529L210.456 189.652L210.17 183.487Z" fill="#3A5749"/>
<path d="M125.628 130.566L126.183 131.185L132.458 134.109L133.697 133.945L133.827 133.217L129.513 129.242L127.701 128.689L126.941 128.643L125.628 130.566Z" fill="#F78459"/>
<path d="M135.913 150.517C135.913 150.517 135.601 150.318 135.087 149.985C132.867 148.55 126.88 144.632 126.008 143.582C124.933 142.289 124.13 139.236 124.13 139.236L124.157 139.029L124.158 139.029L127.311 141.401L128.908 145.163L135.913 150.517Z" fill="#292929"/>
<path d="M124.586 135.742L125.336 136.548L134.78 142.648L133.379 140.792L128.566 137.396L125.857 135.802L125.629 135.512V135.166L124.586 135.742Z" fill="#133524"/>
<path d="M151.485 154.386C151.485 154.386 185.719 176.731 186.404 177.07C187.088 177.409 186.599 176.061 184.938 174.794C183.276 173.526 161.26 159.918 156.935 157.196C152.609 154.474 151.485 154.386 151.485 154.386Z" fill="#133524"/>
<path d="M209.136 186.536L205.438 182.778L202.661 180.75L207.01 183.907L209.136 186.536Z" fill="#3A5749"/>
<path d="M199.841 190.143C202.21 188.758 202.185 184.31 199.787 180.207C197.388 176.104 193.524 173.901 191.155 175.286C188.787 176.67 188.811 181.119 191.21 185.222C193.608 189.324 197.473 191.528 199.841 190.143Z" fill="#292929"/>
<path d="M149.251 156.019C149.251 159.887 146.518 161.445 143.148 159.499C139.777 157.552 137.044 152.839 137.044 148.971C137.044 145.103 139.777 143.545 143.148 145.491C146.518 147.437 149.251 152.151 149.251 156.019Z" fill="#292929"/>
<path d="M203.557 187.371V190.674L203.321 190.557L202.637 190.162V186.84C202.637 182.315 199.441 176.801 195.497 174.524C191.553 172.247 188.356 174.07 188.356 178.595V181.917L187.437 181.386V178.064C187.437 172.956 191.045 170.897 195.497 173.468C199.949 176.038 203.557 182.264 203.557 187.371Z" fill="#133524"/>
<path d="M151.209 157.148V160.47L150.443 160.028L150.288 159.927V156.617C150.288 152.092 147.091 146.578 143.148 144.301C139.205 142.024 136.007 143.847 136.007 148.372V150.58L135.912 150.517C135.912 150.517 135.601 150.318 135.086 149.985V147.84C135.086 142.732 138.696 140.674 143.148 143.245C147.6 145.814 151.209 152.041 151.209 157.148Z" fill="#133524"/>
<path d="M123.175 149.853L126.808 147.156L132.6 143.253L139.865 139.059L145.422 136.41L150.943 134.232L136.573 130.688L134.395 130.645L129.724 132.391L124.594 134.532L115.705 139.664L111.018 143.191L109.293 144.773V145.592L123.175 149.853Z" fill="#292929"/>
<path d="M149.686 134.317L149.483 134.398L145.269 136.058L144.035 136.646L139.687 138.719L132.397 142.927L126.594 146.838L123.103 149.43L118.628 148.057L109.677 145.308V144.942L111.264 143.487L115.917 139.985L124.765 134.876L129.872 132.744L134.459 131.03L135.502 131.051L136.523 131.07L142.545 132.555L146.175 133.451L149.686 134.317Z" fill="#37464E"/>
<path d="M209.599 188.236L209.205 191.35L209.232 191.918L209.24 192.084L209.25 192.289L209.287 193.059L207.229 195.943L203.397 199.374L194.395 204.572L187.058 207.589L181.318 208.698L179.385 207.349L179.743 206.471L182.918 198.707L202.637 187.324L210.138 182.992L209.599 188.236Z" fill="#3A5749"/>
<path d="M189.067 164.232C189.067 164.232 200.903 172.92 204.097 175.487C207.291 178.055 208.837 179.799 209.419 181.166C210.001 182.534 210.151 184.276 210.151 184.276L198.031 180.016L189.067 164.232Z" fill="#133524"/>
<path d="M210.138 182.992L206.866 186.672L204.464 188.695L195.05 194.131L189.771 196.543L182.919 198.707L165.16 185.845L159.162 181.5C159.161 181.498 159.159 181.498 159.159 181.498L189.068 164.232C189.068 164.232 196.111 169.287 201.191 173.288C204.02 175.516 206.472 178.272 208.093 180.278C209.38 181.874 210.138 182.992 210.138 182.992Z" fill="#133524"/>
<path d="M210.138 182.992L206.866 186.672L204.464 188.695L195.05 194.131L189.771 196.543L182.919 198.707L182.932 198.901L182.08 198.102L172.731 191.72C172.731 191.72 162.239 185.22 156.113 181.366C156.082 181.347 156.05 181.326 156.017 181.307L155.535 179.671L156.912 180.855C156.912 180.855 161.115 183.4 165.16 185.845C168.301 187.741 171.345 189.578 172.265 190.118C173.048 190.582 174.128 191.095 175.308 191.59C177.291 192.421 179.559 193.191 181.183 193.551C183.775 194.125 188.96 194.076 190.732 193.825C192.504 193.572 202.44 188.33 203.448 187.517C204.451 186.701 207.446 183.111 207.854 181.564C207.978 181.09 208.051 180.656 208.093 180.278C209.38 181.874 210.138 182.992 210.138 182.992Z" fill="#133524"/>
<path d="M191.772 194.92C191.487 193.626 164.051 180.388 164.066 180.324L164.406 180.232C164.406 180.232 186.845 190.721 190.047 193.188C191.34 194.003 191.892 194.387 191.772 194.92Z" fill="#3A5749"/>
<path d="M204.253 188.126L203.831 187.072L186.5 167.998L186.835 167.823L203.94 186.652L204.253 188.126Z" fill="#133524"/>
<path d="M207.435 184.432C207.435 184.432 204.996 187.703 204.182 188.348C202.661 189.553 197.03 192.825 194.762 193.824C192.494 194.823 190.145 195.845 186.053 195.698C186.688 196.662 189.849 197.339 189.849 197.339L198.953 192.636L205.668 188.592L207.435 184.432Z" fill="#3A5749"/>
<path d="M189.067 164.232L185.582 168.328L183.292 170.502L170.684 177.781L165.963 179.656L159.159 181.499L143.39 162.986L172.056 146.436L189.067 164.232Z" fill="#37464E"/>
<path d="M188.282 163.41L186.987 162.056L186.627 162.828C186.93 163.345 185.783 165.836 183.421 167.573C181.058 169.31 170.268 175.568 167.714 176.669C165.16 177.77 162.236 178.98 159.564 178.886C158.922 178.863 158.403 179.508 158.161 180.326L159.159 181.498L165.963 179.655L170.684 177.781L183.292 170.502L185.583 168.328L189.068 164.231L188.282 163.41Z" fill="#292929"/>
<path d="M149.483 134.397L145.269 136.058L144.035 136.647C143.649 136.167 142.005 134.122 142.005 134.055C142.014 134.001 142.42 132.892 142.545 132.555C142.566 132.493 142.579 132.457 142.579 132.457C142.579 132.457 144.257 132.913 146.175 133.451C147.292 133.763 148.489 134.104 149.483 134.397Z" fill="#566770"/>
<path d="M186.703 163.882L186.818 163.588L166.991 151.126C169.299 149.435 171.293 147.592 171.293 147.592C172.859 148.859 174.43 150.251 175.867 151.726C180.363 156.34 186.703 163.882 186.703 163.882Z" fill="#566770"/>
<path d="M185.802 161.835L185.694 161.821L180.976 160.623L170.587 167.193L168.93 171.453L158.391 177.148C158.392 177.15 158.394 177.152 158.395 177.154C158.448 177.221 158.5 177.286 158.551 177.35C158.552 177.351 158.553 177.353 158.555 177.354C158.762 177.613 158.954 177.848 159.133 178.055C159.135 178.058 159.137 178.06 159.139 178.062C159.172 178.101 159.204 178.137 159.236 178.174C159.25 178.19 159.264 178.206 159.278 178.221C159.306 178.253 159.332 178.282 159.36 178.312C159.377 178.331 159.395 178.351 159.412 178.369C159.437 178.397 159.462 178.422 159.486 178.448C159.504 178.467 159.522 178.486 159.539 178.505C159.562 178.529 159.585 178.552 159.607 178.574C159.626 178.593 159.644 178.611 159.662 178.629C159.683 178.649 159.704 178.669 159.725 178.689C159.743 178.707 159.762 178.724 159.781 178.741C159.8 178.759 159.819 178.776 159.838 178.792C159.857 178.808 159.875 178.824 159.894 178.84C159.912 178.855 159.929 178.869 159.947 178.884C159.966 178.899 159.984 178.913 160.003 178.927C160.019 178.939 160.035 178.951 160.051 178.962C160.07 178.976 160.089 178.988 160.108 179.001C160.122 179.01 160.136 179.02 160.15 179.028C160.171 179.041 160.191 179.052 160.211 179.063C160.222 179.068 160.233 179.075 160.244 179.081C160.275 179.096 160.622 179.204 160.651 179.215C162.107 178.911 163.395 178.677 164.202 178.368C164.202 178.368 165.868 177.891 167.978 176.965C170.439 175.884 173.57 174.228 176.388 172.549C182.155 169.113 183.681 167.715 183.681 167.715L186.296 164.93C186.556 164.423 186.687 163.874 186.704 163.324C186.49 162.956 186.183 162.45 185.802 161.835Z" fill="#63747D"/>
<path d="M158.161 156.427L150.487 158.888L143.746 162.78C144.794 164.146 146.697 166.48 149.687 169.646C154.688 174.945 157.375 179.72 160.057 180.965C160.167 181.015 160.309 181.075 160.479 181.141L165.963 179.655L170.685 177.781L174.907 175.343C165.381 162.3 158.161 156.427 158.161 156.427Z" fill="#1C2121"/>
<path d="M150.943 134.232L145.422 136.41L139.866 139.059L132.601 143.253L126.809 147.157L122.278 150.782L143.39 162.986L149.33 160.64L156.018 157.229L164.977 152.056L168.022 149.848L172.056 146.436L163.081 140.514L150.943 134.232Z" fill="#133524"/>
<path d="M126.985 127.481L121.901 129.19L116.928 131.308L105.45 137.936L101.272 141.1L98.4624 143.948L107.159 146.731L111.019 143.191L115.705 139.664L124.595 134.532L129.725 132.391L136.171 129.981L126.985 127.481Z" fill="#133524"/>
<path d="M182.932 198.901L182.341 205.886L182.17 206.561L182.096 206.85L180.985 207.929H181.539L181.319 208.699L180.195 208.835L174.171 207.807L173.935 207.69L173.454 207.412L173.25 207.295L172.729 204.109C172.729 199.584 169.533 194.07 165.59 191.793C161.645 189.516 158.448 191.34 158.448 195.863L158.969 199.049L121.056 177.161L120.902 177.059L120.38 173.886C120.38 169.361 117.184 163.847 113.241 161.57C109.297 159.292 106.1 161.117 106.1 165.64L106.621 167.712L106.526 167.65C106.526 167.65 106.214 167.45 105.7 167.119C103.48 165.683 99.1531 163.334 98.2795 162.284C97.205 160.99 96.0586 156.852 96.0586 156.852L96.0859 156.644L96.0872 156.645L96.515 153.357L97.5577 152.781L98.0463 149.137L97.5577 148.181L98.025 146.076L98.4627 143.951L99.3263 143.719L104.881 145.857C104.881 145.857 110.714 147.089 117.131 148.776C123.55 150.463 128.958 153.756 131.71 155.271C134.465 156.787 138.422 158.922 143.39 162.987C148.359 167.052 151.829 172.763 154.191 175.585C156.552 178.406 159.16 181.501 159.16 181.501C159.16 181.501 163.492 184.825 167.924 187.888C172.354 190.951 177.308 192.6 179.408 194.599C181.51 196.597 182.919 198.709 182.919 198.709L182.932 198.901Z" fill="#3A5749"/>
<path d="M121.288 173.894C120.523 164.525 120.24 162.468 115.924 159.406C111.607 156.342 108.418 157.584 107.008 158.797C105.597 160.011 105.178 162.7 105.178 165.108C106.556 161.647 106.209 160.829 108.795 160.067C111.381 159.305 114.005 161.619 114.005 161.619L116.883 164.136L119.343 167.936L121.288 173.894Z" fill="#133524"/>
<path d="M122.371 171.819C122.371 171.819 155.811 193.999 156.496 194.338C157.18 194.677 156.598 191.441 154.937 190.173C153.275 188.905 133.266 177.019 128.941 174.297C124.616 171.576 122.371 171.819 122.371 171.819Z" fill="#133524"/>
<path d="M182.932 198.901L182.079 198.102L172.73 191.72C172.73 191.72 162.239 185.22 156.113 181.366C156.082 181.347 156.049 181.326 156.017 181.307C149.701 177.34 121.79 160.524 115.729 156.966C109.636 153.394 103.919 150.484 103.919 150.484L98.0244 146.075L98.4612 143.948L99.3253 143.718L104.88 145.854C104.88 145.854 110.713 147.088 117.13 148.773C123.549 150.461 128.956 153.756 131.711 155.269C134.464 156.784 138.423 158.92 143.39 162.985C148.359 167.051 152.724 172.244 155.086 175.066C157.448 177.887 159.158 181.498 159.158 181.498C159.158 181.498 159.16 181.498 159.162 181.5C159.321 181.586 164.457 184.352 168.82 187.369C171.167 188.991 173.408 190.361 175.308 191.589C176.998 192.679 178.419 193.656 179.407 194.596C181.509 196.594 182.918 198.707 182.918 198.707L182.932 198.901Z" fill="#133524"/>
<path d="M135.124 165.478L134.4 167.682C134.4 167.682 133.338 171.498 133.338 173.433C133.338 175.368 133.75 176.991 133.75 176.991L133.304 178.88L133.544 182.719L135.124 165.478Z" fill="#3A5749"/>
<path d="M135.332 169.629C135.066 169.953 134.913 170.494 135.03 170.803C135.158 171.139 137.496 172.564 137.73 172.621C137.964 172.678 138.138 172.032 138.104 171.833C138.07 171.634 135.332 169.629 135.332 169.629Z" fill="#3A5749"/>
<path d="M137.258 170.625L135.664 169.611C135.458 169.48 135.282 169.57 135.271 169.813L135.268 169.898C135.257 170.141 135.416 170.444 135.623 170.575L137.816 171.97C138.063 172.127 138.204 171.861 138.044 171.542C137.846 171.15 137.562 170.818 137.258 170.625Z" fill="#133524"/>
<path d="M135.906 170.261C135.901 170.392 135.806 170.44 135.695 170.37C135.584 170.299 135.498 170.135 135.504 170.005C135.51 169.874 135.605 169.825 135.716 169.896C135.826 169.967 135.912 170.13 135.906 170.261Z" fill="#383838"/>
<path d="M118.475 159.071C118.21 159.394 118.056 159.936 118.173 160.244C118.301 160.581 120.639 162.006 120.873 162.063C121.107 162.12 121.281 161.474 121.247 161.275C121.213 161.076 118.475 159.071 118.475 159.071Z" fill="#3A5749"/>
<path d="M120.402 160.068L118.807 159.053C118.601 158.922 118.425 159.013 118.414 159.256L118.411 159.34C118.4 159.583 118.559 159.887 118.766 160.018L120.959 161.413C121.206 161.57 121.347 161.303 121.187 160.985C120.989 160.592 120.705 160.26 120.402 160.068Z" fill="#133524"/>
<path d="M119.05 159.703C119.044 159.834 118.949 159.882 118.838 159.811C118.727 159.741 118.641 159.577 118.647 159.446C118.653 159.315 118.748 159.267 118.859 159.338C118.97 159.409 119.055 159.572 119.05 159.703Z" fill="#383838"/>
<path d="M179.407 194.597C178.419 193.656 176.998 192.68 175.308 191.59C174.128 191.095 173.048 190.582 172.265 190.118C171.345 189.578 168.301 187.741 165.16 185.845C161.115 183.4 156.912 180.855 156.912 180.855L155.535 179.671L156.017 181.307C156.05 181.326 156.082 181.347 156.113 181.366C162.239 185.22 172.731 191.72 172.731 191.72L182.08 198.102L182.932 198.901L182.919 198.707C182.919 198.707 181.509 196.595 179.407 194.597Z" fill="#133524"/>
<path d="M155.587 196.285L124.475 177.642L117.997 162.565L116.443 157.528L116.743 155.703L117.156 155.771L116.872 157.499L118.389 162.42L124.806 177.352L155.27 195.607L155.577 193.669L155.579 192.049C155.584 192.011 156.097 188.185 156.001 185.413C155.914 182.903 155.904 181.647 155.903 181.409L154.909 179.032L155.296 178.87L156.322 181.324V181.366C156.322 181.378 156.323 182.612 156.42 185.398C156.514 188.12 156.031 191.83 155.996 192.09L155.994 193.717L155.587 196.285Z" fill="#133524"/>
<path d="M112.67 149.725C112.67 149.725 112.109 151.26 112.096 151.323C112.084 151.386 114.21 154.015 114.21 154.015L156.911 180.856L157.367 180.633C157.367 180.633 152.268 172.374 147.772 167.759C143.276 163.144 137.46 159.319 134.561 157.682C131.661 156.046 124.021 151.911 121.382 151.116C118.743 150.322 112.67 149.725 112.67 149.725Z" fill="#292929"/>
<path d="M114.59 153.587C113.841 152.66 113.042 151.657 112.723 151.236C112.804 151.011 112.929 150.664 113.05 150.332C114.48 150.485 119.067 151.009 121.22 151.657C123.877 152.457 131.739 156.737 134.284 158.174C137.73 160.119 143.225 163.9 147.368 168.152C150.73 171.603 154.479 177.187 156.085 179.67L114.59 153.587Z" fill="#37464E"/>
<path d="M121.382 151.116L117.016 155.778L119.492 157.335L123.716 151.993L121.382 151.116Z" fill="#292929"/>
<path d="M136.365 159.256L134.404 166.251L136.05 167.294L137.735 159.943L136.365 159.256Z" fill="#292929"/>
<path d="M172.729 191.72L171.67 192.006L174.504 195.362L177.616 197.794L178.382 197.768L181.379 198.932L182.08 198.102L176.785 194.603L172.729 191.72Z" fill="#3A5749"/>
<path d="M182.951 199.202L182.186 200.472L181.184 203.761L182.34 205.885L182.951 199.202Z" fill="#3A5749"/>
<path d="M103.095 150.331L103.039 150.641L102.964 151.061L101.727 151.224L98.0721 148.919L97.5571 148.18L98.0721 145.311L98.4858 145.556L98.7944 145.818L99.6049 146.51L103.095 150.331Z" fill="#C3C2CE"/>
<path d="M106.525 167.649C106.525 167.649 106.214 167.45 105.7 167.117C103.48 165.682 99.1527 163.333 98.2795 162.282C97.2045 160.988 96.0586 156.849 96.0586 156.849L96.085 156.643L96.0859 156.643L97.4027 158.669L99.52 162.295L106.525 167.649Z" fill="#292929"/>
<path d="M96.5144 153.355C95.9339 151.135 97.9589 149.783 97.9589 149.783C97.9589 149.783 97.5571 152.434 97.5571 152.779C97.9375 153.251 99.8694 156.004 103.424 158.289C104.131 159.368 104.872 159.915 104.872 159.915C104.872 159.915 98.4584 155.629 97.0194 154.476C95.5803 153.323 96.5144 153.355 96.5144 153.355Z" fill="#133524"/>
<path d="M171.691 203.509C171.691 207.378 168.958 208.935 165.588 206.989C162.217 205.044 159.484 200.33 159.484 196.462C159.484 192.594 162.217 191.036 165.588 192.982C168.959 194.928 171.691 199.642 171.691 203.509Z" fill="#292929"/>
<path d="M117.584 177.19C119.952 175.805 119.928 171.357 117.53 167.254C115.131 163.151 111.267 160.948 108.898 162.333C106.529 163.717 106.554 168.166 108.952 172.269C111.351 176.371 115.215 178.575 117.584 177.19Z" fill="#292929"/>
<path d="M121.301 174.416L121.822 177.602L121.056 177.16L120.901 177.058L120.38 173.885C120.38 169.36 117.183 163.846 113.24 161.569C109.296 159.292 106.099 161.115 106.099 165.64L106.62 167.712L106.525 167.649C106.525 167.649 106.214 167.45 105.7 167.117L105.178 165.108C105.178 160 108.788 157.942 113.24 160.513C117.691 163.082 121.301 169.308 121.301 174.416Z" fill="#133524"/>
<path d="M171.029 146.509C171.029 146.509 177.524 152.165 181.177 156.314C183.772 159.262 185.499 161.375 186.627 162.829C188.149 164.791 185.941 168.25 185.941 168.25L189.115 164.309L181.973 155.9L172.056 146.436L171.029 146.509Z" fill="#133524"/>
<path d="M109.293 144.773V145.592L123.175 149.852L126.809 147.156L122.413 150.727L107.008 146.58L109.293 144.773Z" fill="#133524"/>
<path d="M150.497 134.408L150.565 134.232L136.573 130.688L134.221 130.641L136.21 129.867L151.094 134.204L150.497 134.408Z" fill="#133524"/>
<path d="M171.691 203.509C171.691 207.377 168.959 208.935 165.588 206.989C162.217 205.043 159.485 200.33 159.485 196.462C159.485 192.593 162.218 191.036 165.588 192.982C168.959 194.928 171.691 199.642 171.691 203.509Z" fill="#393843"/>
<path d="M171.311 203.439C171.311 207.16 168.682 208.659 165.439 206.787C162.197 204.914 159.568 200.38 159.568 196.66C159.568 192.939 162.197 191.44 165.439 193.312C168.682 195.184 171.311 199.718 171.311 203.439Z" fill="#2D2C37"/>
<path d="M170.481 202.978C170.481 206.147 168.243 207.423 165.481 205.829C162.72 204.235 160.481 200.374 160.481 197.205C160.481 194.037 162.72 192.76 165.481 194.355C168.243 195.949 170.481 199.81 170.481 202.978Z" fill="#504F58"/>
<path d="M170.325 202.649C170.325 205.652 168.203 206.861 165.586 205.35C162.969 203.84 160.848 200.18 160.848 197.177C160.848 194.174 162.969 192.964 165.586 194.475C168.204 195.986 170.325 199.645 170.325 202.649Z" fill="#BABABE"/>
<path d="M161.188 198.084C161.386 199.808 162.25 201.775 163.614 203.341C164.977 204.903 166.518 205.69 167.755 205.613C168.303 205.576 168.79 205.374 169.171 204.988C169.297 204.871 169.411 204.729 169.508 204.566C169.529 204.534 169.549 204.506 169.565 204.473C169.634 204.356 169.695 204.234 169.744 204.104C169.813 203.934 169.87 203.756 169.914 203.565C169.991 203.228 170.028 202.863 170.028 202.481C170.028 202.307 170.02 202.129 170.004 201.95C170 201.857 169.987 201.767 169.975 201.678C169.967 201.617 169.959 201.556 169.95 201.496C169.942 201.439 169.934 201.382 169.922 201.325C169.894 201.155 169.861 200.98 169.817 200.806C169.796 200.721 169.776 200.64 169.752 200.555C169.735 200.481 169.715 200.413 169.691 200.344C169.663 200.242 169.63 200.137 169.594 200.036C169.57 199.958 169.545 199.881 169.517 199.808C169.399 199.48 169.261 199.155 169.103 198.831C169.071 198.761 169.038 198.697 169.006 198.632C168.892 198.413 168.775 198.198 168.645 197.983C168.613 197.93 168.58 197.877 168.548 197.825C168.487 197.727 168.422 197.63 168.361 197.536C168.118 197.171 167.85 196.818 167.562 196.486C167.416 196.32 167.27 196.161 167.12 196.016C167.051 195.942 166.978 195.874 166.909 195.809C166.889 195.788 166.865 195.768 166.844 195.748C166.787 195.695 166.726 195.642 166.67 195.594C165.964 194.981 165.242 194.567 164.56 194.361C163.359 194 162.284 194.28 161.668 195.261C161.647 195.289 161.627 195.322 161.611 195.35C161.493 195.549 161.404 195.768 161.331 195.999C161.143 196.607 161.099 197.321 161.188 198.084Z" fill="url(#paint2_linear_343_13150)"/>
<path d="M167.046 196.644L167.09 197.974C167.589 197.934 168.084 197.885 168.547 197.824C168.486 197.727 168.421 197.63 168.36 197.536C168.117 197.171 167.849 196.818 167.561 196.486C167.415 196.319 167.269 196.161 167.119 196.015C167.05 195.942 166.977 195.873 166.908 195.808C166.887 195.788 166.863 195.768 166.843 195.747C166.786 195.695 166.725 195.642 166.668 195.593C165.962 194.981 165.241 194.567 164.559 194.36C163.358 193.999 162.283 194.279 161.667 195.261C165.111 194.08 167.046 196.644 167.046 196.644Z" fill="#393843"/>
<path d="M161.472 198.064C161.472 198.064 162.62 199.585 163.8 199.986C164.981 200.388 167.264 203.15 167.264 203.15L167.09 197.974C164.392 198.177 161.472 198.064 161.472 198.064Z" fill="#393843"/>
<path d="M163.836 197.171C164.007 198.651 164.749 200.343 165.921 201.686C166.566 202.428 167.264 202.968 167.933 203.284V203.288C168.477 203.548 169 203.665 169.475 203.637C169.511 203.637 169.547 203.633 169.584 203.625C169.698 203.617 169.807 203.596 169.913 203.564C169.99 203.227 170.027 202.862 170.027 202.481C170.027 202.306 170.018 202.128 170.002 201.949C169.998 201.856 169.986 201.767 169.974 201.678C169.966 201.617 169.957 201.556 169.949 201.495C169.941 201.438 169.933 201.381 169.921 201.324C169.893 201.154 169.86 200.979 169.816 200.805C169.795 200.72 169.775 200.639 169.751 200.554C169.734 200.481 169.714 200.412 169.69 200.343C169.662 200.242 169.629 200.136 169.592 200.035C169.568 199.958 169.544 199.881 169.516 199.808C169.398 199.479 169.26 199.154 169.102 198.83C169.07 198.761 169.037 198.696 169.005 198.631C168.891 198.412 168.773 198.197 168.644 197.982C168.555 197.832 168.457 197.682 168.36 197.536C168.116 197.171 167.848 196.818 167.561 196.485C167.415 196.319 167.268 196.161 167.118 196.015C167.049 195.942 166.977 195.873 166.907 195.808C166.887 195.788 166.863 195.768 166.842 195.747C166.786 195.694 166.725 195.642 166.668 195.593C165.962 194.98 165.24 194.567 164.558 194.36C164.425 194.49 164.303 194.644 164.197 194.826C164.1 194.997 164.019 195.179 163.958 195.382C163.873 195.67 163.821 195.987 163.804 196.323C163.792 196.595 163.804 196.879 163.836 197.171Z" fill="url(#paint3_linear_343_13150)"/>
<path d="M167.246 199.657L167.135 200.696V200.7L167.246 199.657L168.055 199.187L168.644 197.982C168.555 197.832 168.457 197.682 168.36 197.536C168.116 197.171 167.848 196.818 167.56 196.485C167.415 196.319 167.268 196.161 167.118 196.015C167.049 195.942 166.976 195.873 166.907 195.808C166.887 195.788 166.863 195.768 166.842 195.747C166.684 195.84 166.554 195.922 166.546 195.93L167.56 197.095L167.246 199.657Z" fill="url(#paint4_linear_343_13150)"/>
<path d="M167.246 199.657L167.134 200.696V200.7L167.933 203.284L168.29 204.448C168.412 204.704 168.051 205.284 168.217 205.252C168.485 205.199 169.15 204.805 169.507 204.566C169.527 204.534 169.547 204.505 169.564 204.473C169.633 204.355 169.693 204.233 169.742 204.104C169.734 204.043 169.714 203.982 169.682 203.917L169.584 203.625L168.124 199.325L168.055 199.188L167.246 199.657Z" fill="url(#paint5_linear_343_13150)"/>
<path d="M166.443 201.304L168.127 197.842C168.21 197.698 168.159 197.435 168.005 197.227C167.846 197.01 167.677 196.798 167.498 196.594C167.321 196.391 167.139 196.2 166.956 196.024C166.78 195.854 166.587 195.838 166.504 195.982L164.82 199.444L166.443 201.304Z" fill="#DFDFE3"/>
<path d="M165.801 200.077L165.797 197.996L165.689 197.934L161.811 196.292C161.636 196.192 161.484 196.243 161.446 196.417C161.359 196.81 161.329 197.241 161.351 197.695C161.362 197.932 161.526 198.207 161.726 198.323L164.94 199.582L165.801 200.077Z" fill="#DFDFE3"/>
<path d="M168.859 204.916C168.972 204.828 168.976 204.606 168.87 204.385L167.312 199.794L167.246 199.656L165.802 200.078L166.322 201.165L167.48 204.917C167.601 205.171 167.825 205.341 167.992 205.308C168.311 205.245 168.604 205.115 168.859 204.916Z" fill="#DFDFE3"/>
<path d="M167.994 204.795C167.975 204.774 167.952 204.743 167.932 204.702L166.744 200.888L165.263 199.19L161.978 197.888C161.93 197.861 161.855 197.742 161.852 197.671C161.839 197.402 161.846 197.145 161.874 196.904L165.874 198.617L166.763 196.535C166.885 196.659 167.005 196.789 167.122 196.922C167.289 197.113 167.45 197.315 167.603 197.522C167.638 197.569 167.656 197.616 167.663 197.646L166.748 199.772C166.748 199.772 168.424 204.607 168.425 204.61C168.293 204.693 168.149 204.755 167.994 204.795Z" fill="#4B4A4B"/>
<path d="M119.343 173.286C119.343 177.154 116.61 178.712 113.239 176.766C109.869 174.819 107.136 170.106 107.136 166.238C107.136 162.37 109.869 160.812 113.239 162.758C116.61 164.705 119.343 169.418 119.343 173.286Z" fill="#2D2C37"/>
<path d="M119.343 173.286C119.343 177.154 116.61 178.712 113.239 176.766C109.868 174.819 107.136 170.106 107.136 166.238C107.136 162.37 109.868 160.812 113.239 162.758C116.61 164.705 119.343 169.418 119.343 173.286Z" fill="#393843"/>
<path d="M118.962 173.216C118.962 176.937 116.333 178.435 113.091 176.563C109.848 174.691 107.219 170.157 107.219 166.436C107.219 162.715 109.848 161.217 113.091 163.088C116.333 164.961 118.962 169.495 118.962 173.216Z" fill="#2D2C37"/>
<path d="M118.133 172.755C118.133 175.923 115.894 177.2 113.133 175.606C110.371 174.011 108.133 170.15 108.133 166.982C108.133 163.813 110.371 162.537 113.133 164.131C115.894 165.725 118.133 169.586 118.133 172.755Z" fill="#504F58"/>
<path d="M117.977 172.424C117.977 175.428 115.855 176.637 113.238 175.126C110.621 173.615 108.5 169.956 108.5 166.953C108.5 163.949 110.621 162.74 113.238 164.251C115.855 165.762 117.977 169.421 117.977 172.424Z" fill="#BABABE"/>
<path d="M108.84 167.86C109.038 169.584 109.902 171.551 111.266 173.117C112.629 174.679 114.17 175.466 115.407 175.389C115.955 175.353 116.442 175.15 116.823 174.765C116.949 174.647 117.063 174.505 117.16 174.343C117.181 174.311 117.201 174.282 117.217 174.25C117.286 174.132 117.346 174.01 117.396 173.881C117.465 173.71 117.521 173.532 117.566 173.341C117.643 173.004 117.68 172.639 117.68 172.258C117.68 172.083 117.671 171.905 117.656 171.726C117.651 171.633 117.639 171.544 117.627 171.455C117.619 171.394 117.611 171.333 117.602 171.272C117.594 171.215 117.586 171.158 117.574 171.101C117.546 170.931 117.513 170.756 117.469 170.582C117.448 170.497 117.428 170.416 117.404 170.331C117.387 170.258 117.367 170.189 117.343 170.12C117.315 170.019 117.282 169.913 117.246 169.812C117.221 169.735 117.197 169.658 117.168 169.585C117.051 169.256 116.913 168.931 116.755 168.607C116.722 168.538 116.69 168.473 116.657 168.408C116.544 168.189 116.426 167.974 116.296 167.759C116.264 167.706 116.231 167.654 116.199 167.601C116.138 167.504 116.073 167.406 116.012 167.313C115.769 166.948 115.501 166.595 115.213 166.262C115.067 166.096 114.921 165.938 114.771 165.792C114.702 165.719 114.629 165.65 114.56 165.585C114.54 165.565 114.516 165.545 114.495 165.524C114.438 165.471 114.377 165.419 114.321 165.37C113.615 164.757 112.893 164.344 112.211 164.137C111.01 163.776 109.935 164.056 109.319 165.037C109.298 165.066 109.278 165.098 109.262 165.126C109.144 165.325 109.055 165.544 108.982 165.776C108.795 166.383 108.751 167.097 108.84 167.86Z" fill="url(#paint6_linear_343_13150)"/>
<path d="M114.697 166.42L114.742 167.75C115.241 167.71 115.736 167.661 116.198 167.6C116.137 167.503 116.072 167.406 116.012 167.312C115.768 166.947 115.501 166.594 115.212 166.261C115.067 166.095 114.92 165.937 114.77 165.791C114.701 165.718 114.628 165.649 114.559 165.584C114.539 165.564 114.515 165.544 114.494 165.523C114.437 165.471 114.377 165.418 114.32 165.369C113.614 164.756 112.892 164.343 112.21 164.136C111.009 163.775 109.934 164.055 109.318 165.036C112.762 163.856 114.697 166.42 114.697 166.42Z" fill="#393843"/>
<path d="M109.124 167.84C109.124 167.84 110.272 169.361 111.452 169.762C112.633 170.164 114.916 172.926 114.916 172.926L114.742 167.75C112.044 167.953 109.124 167.84 109.124 167.84Z" fill="#393843"/>
<path d="M111.488 166.947C111.659 168.428 112.401 170.119 113.573 171.462C114.218 172.204 114.916 172.744 115.585 173.06V173.064C116.129 173.324 116.652 173.442 117.126 173.413C117.163 173.413 117.2 173.409 117.236 173.401C117.35 173.393 117.459 173.373 117.565 173.34C117.642 173.003 117.678 172.639 117.678 172.257C117.678 172.083 117.67 171.904 117.654 171.726C117.65 171.633 117.638 171.543 117.626 171.454C117.617 171.393 117.609 171.332 117.601 171.271C117.593 171.214 117.585 171.158 117.573 171.101C117.545 170.93 117.512 170.756 117.467 170.582C117.447 170.497 117.427 170.415 117.402 170.33C117.386 170.257 117.366 170.189 117.341 170.119C117.313 170.018 117.281 169.913 117.244 169.811C117.22 169.734 117.196 169.657 117.167 169.584C117.049 169.255 116.911 168.931 116.753 168.606C116.721 168.537 116.688 168.473 116.656 168.408C116.542 168.188 116.425 167.974 116.295 167.759C116.206 167.609 116.109 167.459 116.011 167.312C115.768 166.947 115.5 166.594 115.212 166.262C115.066 166.095 114.92 165.937 114.77 165.791C114.701 165.718 114.628 165.649 114.559 165.584C114.538 165.564 114.514 165.544 114.494 165.524C114.437 165.471 114.376 165.418 114.319 165.369C113.613 164.757 112.891 164.343 112.21 164.136C112.076 164.266 111.954 164.42 111.849 164.603C111.751 164.773 111.67 164.955 111.61 165.158C111.525 165.447 111.472 165.763 111.456 166.099C111.444 166.371 111.456 166.655 111.488 166.947Z" fill="url(#paint7_linear_343_13150)"/>
<path d="M114.898 169.432L114.786 170.472V170.476L114.898 169.432L115.707 168.963L116.296 167.758C116.206 167.608 116.109 167.458 116.011 167.312C115.768 166.947 115.501 166.593 115.212 166.261C115.066 166.095 114.92 165.937 114.77 165.791C114.701 165.717 114.628 165.649 114.559 165.584C114.539 165.563 114.515 165.543 114.494 165.523C114.336 165.616 114.206 165.697 114.198 165.706L115.211 166.871L114.898 169.432Z" fill="url(#paint8_linear_343_13150)"/>
<path d="M114.897 169.432L114.786 170.472V170.476L115.585 173.06L115.942 174.224C116.064 174.48 115.703 175.06 115.869 175.027C116.137 174.975 116.802 174.581 117.159 174.342C117.179 174.31 117.199 174.281 117.216 174.249C117.285 174.131 117.345 174.009 117.394 173.88C117.386 173.819 117.366 173.758 117.333 173.693L117.236 173.401L115.776 169.101L115.707 168.963L114.897 169.432Z" fill="url(#paint9_linear_343_13150)"/>
<path d="M110.014 165.571C110.082 165.535 110.175 165.542 110.275 165.6L114.152 167.241L114.261 167.304L114.265 169.385L113.403 168.89L110.19 167.63C109.99 167.515 109.826 167.239 109.814 167.003C109.792 166.548 109.092 166.449 109.178 166.056C109.195 165.981 109.963 165.598 110.014 165.571Z" fill="url(#paint10_linear_343_13150)"/>
<path d="M114.094 171.08L115.779 167.618C115.862 167.474 115.811 167.211 115.657 167.002C115.498 166.785 115.329 166.574 115.15 166.37C114.973 166.166 114.791 165.976 114.608 165.799C114.432 165.63 114.239 165.613 114.156 165.757L112.472 169.219L114.094 171.08Z" fill="#DFDFE3"/>
<path d="M113.453 169.854L113.449 167.772L113.341 167.71L109.463 166.069C109.288 165.968 109.136 166.019 109.097 166.193C109.011 166.586 108.981 167.017 109.002 167.472C109.014 167.708 109.178 167.984 109.378 168.099L112.591 169.359L113.453 169.854Z" fill="#DFDFE3"/>
<path d="M116.511 174.692C116.624 174.603 116.628 174.382 116.522 174.161L114.964 169.57L114.898 169.432L113.454 169.853L113.974 170.941L115.132 174.693C115.253 174.947 115.477 175.117 115.644 175.084C115.963 175.022 116.256 174.891 116.511 174.692Z" fill="#DFDFE3"/>
<path d="M115.645 174.571C115.626 174.55 115.603 174.52 115.583 174.478L114.395 170.664L112.914 168.966L109.629 167.665C109.581 167.637 109.506 167.518 109.503 167.447C109.49 167.178 109.497 166.922 109.524 166.681L113.525 168.393L114.414 166.312C114.536 166.436 114.656 166.565 114.773 166.699C114.939 166.89 115.101 167.092 115.254 167.299C115.289 167.346 115.307 167.392 115.314 167.422L114.399 169.548C114.399 169.548 116.074 174.383 116.076 174.386C115.944 174.469 115.8 174.531 115.645 174.571Z" fill="#4B4A4B"/>
<path d="M182.34 205.885L190.977 204.795L206.514 195.884L209.599 188.236L209.773 186.536L203.557 190.962L197.372 195.063L189.393 199.067L182.951 199.202L182.34 205.885Z" fill="#3A5749"/>
<path d="M187.797 201.968L193.219 197.054C193.219 197.054 196.82 195.376 199.698 193.759C202.576 192.141 204.598 190.614 204.598 190.614L207.965 190.12C207.965 190.12 204.702 193.474 203.584 194.748C202.63 195.835 192.58 201.152 191.037 201.236C190.122 201.285 187.797 201.968 187.797 201.968Z" fill="#133524"/>
<path d="M181.379 198.931H184.649H189.067L191.466 196.814L192.003 195.522L186.989 196.536L180.862 195.759L172.729 191.719L177.32 196.241L181.379 198.931Z" fill="#3A5749"/>
<path d="M189.85 196.379C189.614 196.624 187.984 197.858 186.59 198.417C186.491 198.456 186.395 198.49 186.301 198.523C186.077 198.598 185.862 198.653 185.665 198.676C185.612 198.683 185.56 198.687 185.509 198.689C184.179 198.747 182.519 198.744 181.182 198.593C180.241 198.488 176.94 197.158 175.98 196.213C174.959 195.205 174.311 194.104 174.311 194.104L174.941 193.293C174.941 193.293 174.966 193.293 175.009 193.293C175.03 193.296 175.057 193.296 175.089 193.298C175.11 193.298 175.131 193.3 175.156 193.303C175.181 193.305 175.206 193.305 175.236 193.307C175.247 193.309 175.263 193.312 175.277 193.312C175.293 193.314 175.309 193.316 175.327 193.316C175.584 193.342 175.939 193.394 176.277 193.504C176.492 193.575 176.909 193.738 177.45 193.939C177.509 193.962 177.569 193.985 177.633 194.008C178.663 194.39 180.092 194.882 181.511 195.168C183.29 195.523 185.834 195.636 187.709 195.871C187.773 195.88 187.837 195.887 187.901 195.896H187.903C188.164 195.933 188.411 195.969 188.641 196.013C188.806 196.041 188.956 196.073 189.101 196.107L189.85 196.379Z" fill="#C3C2CE"/>
<path d="M181.512 195.168C183.291 195.523 185.834 195.635 187.709 195.871C187.091 196.331 186.274 196.86 185.548 197.068C184.156 197.469 181.026 197.158 181.026 197.158C181.026 197.158 177.42 195.885 177.402 195.56C177.388 195.333 177.541 194.488 177.633 194.007C178.664 194.39 180.092 194.882 181.512 195.168Z" fill="white"/>
<path d="M189.849 196.38C189.614 196.623 187.986 197.858 186.591 198.416C186.491 198.457 186.396 198.491 186.302 198.522C186.072 198.598 185.857 198.652 185.666 198.677C185.612 198.682 185.561 198.688 185.511 198.69C184.18 198.747 182.519 198.743 181.184 198.594C180.241 198.488 176.941 197.157 175.981 196.211C174.96 195.203 174.311 194.104 174.311 194.104L174.941 193.292C174.941 193.292 174.966 193.292 175.01 193.294C175.031 193.296 175.058 193.296 175.091 193.297C175.111 193.297 175.133 193.299 175.157 193.301C175.182 193.303 175.207 193.305 175.236 193.307C175.249 193.309 175.265 193.311 175.278 193.311C175.296 193.311 175.313 193.312 175.33 193.314L175.328 193.316L174.738 194.004C174.738 194.004 175.759 195.584 176.545 196.09C177.33 196.597 181.184 197.894 181.184 197.894C181.184 197.894 184.412 198.107 185.488 197.894C186.367 197.722 188.051 196.469 188.641 196.012C188.806 196.04 188.959 196.073 189.103 196.107L189.849 196.38Z" fill="#133524"/>
<path d="M210.036 183.81C210.002 183.81 209.844 184.842 209.528 185.973C209.475 186.163 209.327 186.337 209.18 186.507C208.93 186.798 206.471 188.396 205.146 188.341L205.111 188.339L205.752 187.414L205.794 187.357C205.796 187.352 205.8 187.35 205.803 187.345C206.959 186.017 208.152 184.009 208.806 183.084C208.971 182.851 209.074 182.448 209.131 182.068C209.193 181.67 209.205 181.294 209.186 181.159C209.161 180.981 208.999 180.651 208.804 180.31C208.5 179.779 208.124 179.222 208.085 179.167C208.152 179.245 209.004 180.257 209.487 181.413C209.989 182.615 210.036 183.81 210.036 183.81Z" fill="#C3C2CE"/>
<path d="M187.684 201.375L193.106 196.461C193.106 196.461 196.699 194.623 199.577 193.005C202.455 191.388 204.477 189.86 204.477 189.86L207.852 189.526C207.852 189.526 204.59 192.88 203.471 194.155C202.517 195.241 192.467 200.559 190.925 200.642C190.009 200.692 187.684 201.375 187.684 201.375Z" fill="#292929"/>
<path d="M205.768 189.732C204.713 190.827 203.152 192.46 202.446 193.265C201.492 194.352 191.442 199.669 189.9 199.753C189.763 199.76 189.594 199.782 189.407 199.813L187.684 201.375C187.684 201.375 190.009 200.692 190.924 200.642C192.466 200.559 202.516 195.241 203.47 194.155C204.589 192.88 207.851 189.526 207.851 189.526L205.768 189.732Z" fill="#133524"/>
<path d="M207.852 186.166C207.85 186.168 207.85 186.17 207.848 186.172C207.245 186.839 206.536 187.319 205.796 187.356C205.799 187.352 205.801 187.349 205.803 187.345C205.828 187.303 205.858 187.26 205.892 187.21C206.508 186.257 208.063 183.583 208.489 182.919C208.59 182.761 208.681 182.592 208.759 182.411C208.88 182.127 208.967 181.823 208.999 181.521C209.045 181.152 209.01 180.786 208.866 180.465C208.837 180.399 208.816 180.346 208.805 180.309C208.685 179.941 209.439 181.086 209.542 182.365C209.615 183.263 208.905 184.996 207.852 186.166Z" fill="#C3C2CE"/>
<path d="M209.226 183.185C209.226 184.069 208.292 185.392 207.852 186.166C207.85 186.168 207.85 186.171 207.848 186.173C207.479 186.821 206.777 187.402 205.753 187.414L205.794 187.356C205.797 187.352 205.801 187.35 205.803 187.345C205.828 187.304 205.858 187.261 205.892 187.21C206.508 186.258 208.063 183.584 208.489 182.92C208.59 182.761 208.681 182.592 208.759 182.411C208.88 182.127 208.967 181.823 208.999 181.521C209.054 181.686 209.098 181.874 209.132 182.068C209.199 182.441 209.226 182.846 209.226 183.185Z" fill="white"/>
<path d="M177.06 193.849C177.06 193.849 176.338 193.578 176.205 193.549C175.842 193.473 175.563 193.418 175.563 193.418L175.076 194.01C175.076 194.01 175.633 194.941 176.071 195.379C176.637 195.379 176.82 195.094 176.82 195.094L177.06 193.849Z" fill="#FFCE49"/>
<path d="M167.135 189.533C163.834 187.897 163.402 189.117 161.008 189.729C167.643 191.583 170.126 195.047 171.311 197.36C172.496 199.674 173.373 202.07 173.373 202.07C173.734 202.782 174.663 195.347 167.135 189.533Z" fill="#133524"/>
<path d="M167.135 189.533C163.104 186.961 161.918 187.689 160.688 188.226C158.233 189.298 157.062 192.91 157.344 195.097C157.626 197.312 158.176 198.285 158.176 198.285C158.176 198.285 157.725 194.772 158.317 193.573C158.909 192.374 159.037 191.485 160.617 190.357C162.197 189.228 165.439 190.822 165.439 190.822L168.947 192.6L167.135 189.533Z" fill="#133524"/>
<path d="M173.649 204.639L174.171 207.806L173.934 207.689L173.25 207.294L172.729 204.108C172.729 199.583 169.533 194.07 165.589 191.792C161.645 189.515 158.448 191.338 158.448 195.863L158.969 199.049L158.05 198.518L157.528 195.332C157.528 190.224 161.137 188.165 165.589 190.736C170.041 193.306 173.649 199.532 173.649 204.639Z" fill="#133524"/>
<path d="M210.456 189.652C208.654 191.823 207.361 192.745 205.066 194.588C202.771 196.431 194.193 201.534 191.372 202.286C188.55 203.039 185.778 204.052 181.803 203.15C177.828 202.249 175.722 201.571 175.722 201.571L176.38 203.151C176.38 203.151 176.7 207.121 178.9 207.403C181.101 207.685 185.03 207.091 189.296 206.002C193.562 204.914 203.184 198.707 203.184 198.707L206.853 195.845L209.244 192.165L210.212 190.616L210.456 189.652Z" fill="#133524"/>
<path d="M209.508 192.289L209.288 193.058L207.229 195.943L203.397 199.374L194.395 204.571L187.058 207.589L181.318 208.697L180.194 208.833L174.171 207.805L173.934 207.688L173.453 207.41C173.504 206.759 174.05 206.211 174.171 205.884C174.389 205.291 176.381 203.15 176.381 203.15C176.381 203.15 177.785 205.959 179.744 206.47C179.813 206.488 179.883 206.503 179.954 206.515C180.576 206.621 181.367 206.618 182.17 206.559C184.04 206.426 185.974 206.002 185.974 206.002L193.799 202.849L203.994 196.906L207.079 194.205L208.1 193.159L208.954 192.287L209.24 192.083L209.25 192.288H209.508V192.289Z" fill="#133524"/>
<path d="M185.974 206.003C187.243 204.45 188.429 203.942 190.093 203.632C191.758 203.321 196.053 201.137 198.698 199.62C201.342 198.103 204.42 196.287 204.935 195.651C205.45 195.016 206.825 194.008 207.079 194.207C206.722 195.092 204.543 196.956 204.543 196.956C204.543 196.956 202.17 198.757 197.257 201.479C192.344 204.2 189.84 204.847 185.974 206.003Z" fill="#292929"/>
<path d="M103.095 150.331L99.195 148.531L98.4864 148.203L98.0728 145.311L98.4614 143.949L101.273 141.101L100.972 141.562C100.972 141.562 98.7082 143.725 98.7082 143.922C98.7082 143.997 98.875 144.285 99.08 144.614C99.415 145.146 99.8559 145.788 99.8559 145.788L101.938 148.458L103.095 150.331Z" fill="#C3C2CE"/>
<path d="M97.5571 148.18L99.2176 146.344V144.829L98.708 143.921L100.972 141.561L101.273 141.1L98.4612 143.948L98.0721 145.311L97.5571 148.18Z" fill="#E9D7A7"/>
<path d="M102.973 150.144L102.918 150.454L101.889 150.54L99.073 148.343L98.4976 147.438L98.673 145.631C98.673 145.631 98.8971 144.677 98.9585 144.426C99.2939 144.959 99.7344 145.6 99.7344 145.6L101.817 148.27L102.973 150.144Z" fill="#FF5030"/>
<path d="M99.4895 148.088L101.992 150.021L102.853 149.949L101.816 148.27L99.734 145.6C99.734 145.6 99.484 145.236 99.2177 144.829C99.1504 145.114 99.089 145.375 99.089 145.375L98.9136 147.183L99.4895 148.088Z" fill="#FF4123"/>
<path d="M199.01 190.019L198.52 191.001L197.218 191.101L197.708 190.119L199.01 190.019Z" fill="#C3C2CE"/>
<path d="M165.932 151.863C168.429 150.235 171.864 147.075 171.864 147.075L172.082 146.463L172.056 146.436L143.391 162.986L159.171 181.588L163.505 180.322C163.505 180.322 161.308 179.478 160.333 179.121C159.359 178.764 157.562 175.856 154.146 171.813C150.73 167.771 145.368 162.845 145.368 162.845C145.368 162.845 148.974 161.297 151.209 160.223C153.445 159.148 163.436 153.491 165.932 151.863Z" fill="#133524"/>
<path d="M155.388 180.187C155.388 180.187 155.888 180.115 156.094 179.945C156.3 179.776 156.146 179.154 155.794 178.931C155.443 178.708 154.456 179.203 154.293 179.119C154.13 179.035 153.128 179.458 153.128 179.458L153.453 180.173L155.388 180.187Z" fill="#133524"/>
<path d="M153.401 177.591C154.33 177.359 155.277 177.662 155.403 178.716C155.555 179.996 154.992 180.2 154.652 180.36C154.313 180.521 153.044 181.075 151.436 181.093C149.828 181.111 149.632 180.251 149.631 179.679C149.631 179.597 149.633 179.603 149.638 179.527C149.683 178.711 149.978 178.469 150.525 178.306C151.706 177.953 153.401 177.591 153.401 177.591Z" fill="#133524"/>
<path d="M155.038 178.122C154.505 177.956 153.4 178.171 152.315 178.407C151.229 178.642 150.413 178.624 150.327 179.679C150.241 180.734 150.583 180.991 151.034 181.06C151.485 181.129 152.34 181.122 153.628 180.748C154.916 180.373 155.097 180.162 155.298 179.807C155.499 179.452 155.57 178.287 155.038 178.122Z" fill="#3A5749"/>
<path d="M124.894 85.0788L169.524 59.3115L169.534 62.6856C169.64 100.324 148.47 122.85 147.356 124.035C146.239 124.138 125.01 126.092 124.904 88.4529L124.894 85.0788ZM163.797 88.2447C165.66 81.4238 166.714 74.4079 166.942 67.3374L127.513 90.1015C127.78 96.8861 128.87 102.664 130.766 107.315C132.497 111.565 134.901 114.89 137.914 117.202C141.722 120.124 145.578 120.677 147.346 120.766C149.109 118.638 152.949 113.643 156.728 106.339C159.718 100.562 162.099 94.4738 163.797 88.2447Z" fill="#D9E0EA"/>
<path d="M166.942 67.3374C166.714 74.4079 165.66 81.4238 163.796 88.2447C162.099 94.4738 159.718 100.562 156.728 106.339C152.949 113.643 149.109 118.638 147.346 120.766C145.578 120.677 141.722 120.125 137.914 117.201C134.901 114.89 132.497 111.564 130.766 107.315C128.87 102.664 127.78 96.886 127.513 90.1015L166.942 67.3374Z" fill="#43A048"/>
<path d="M124.894 85.0787L120.227 82.3664L164.857 56.5991L169.524 59.3114L124.894 85.0787Z" fill="#F6F7F8"/>
<path d="M124.903 88.4526L124.894 85.0785L120.227 82.3662L120.236 85.7403C120.296 106.814 126.977 115.476 133.042 119.001L137.709 121.713C131.644 118.188 124.963 109.526 124.903 88.4526Z" fill="#C1C7CE"/>
<path d="M156.571 82.7724L153.672 81.0879L158.546 81.8706L161.446 83.5552L156.571 82.7724Z" fill="#F6F7F8"/>
<path d="M148.779 101.302L145.88 99.617L153.673 81.0879L156.572 82.7724L148.779 101.302Z" fill="#CBD5E2"/>
<path d="M140.23 105.81L137.331 104.125L141.406 97.0669L144.305 98.7519L140.23 105.81Z" fill="#CBD5E2"/>
<path d="M148.779 101.301L145.88 99.6169L141.406 97.0669L144.305 98.7519L148.779 101.301Z" fill="#A9A9A9"/>
<path d="M156.571 82.7725L161.445 83.5552L149.794 111.26L140.229 105.81L144.304 98.752L148.779 101.302L156.571 82.7725Z" fill="#F6F6F6"/>
<path d="M140.998 105.602L144.512 99.5151L149.051 102.102L156.918 83.3965L160.652 83.9956L149.522 110.46L140.998 105.602Z" fill="#43A048"/>
<path d="M157.065 157.068C157.714 158.4 159.489 158.027 159.993 157.709C160.497 157.392 164.699 155.02 165.334 154.534C165.969 154.049 165.174 152.503 165.174 152.503C165.174 152.503 160.497 155.258 157.065 157.068Z" fill="#131313"/>
<path d="M163.129 156.16L161.507 157.097C160.599 157.621 159.704 158.208 158.829 158.854C158.543 159.065 158.385 159.494 158.461 159.85L158.662 160.794C158.739 161.152 159.025 161.324 159.328 161.194C160.257 160.798 161.178 160.337 162.086 159.812L163.709 158.876C164.617 158.351 165.511 157.764 166.387 157.119C166.673 156.908 166.831 156.479 166.755 156.122L166.554 155.178C166.478 154.821 166.191 154.649 165.888 154.778C164.959 155.174 164.038 155.636 163.129 156.16Z" fill="#63747D"/>
<path d="M163.486 157.364C163.468 156.901 163.368 155.621 163.368 155.621L161.754 155.655C161.754 155.655 161.934 157.468 161.954 157.535C162.045 157.83 162.438 158.156 162.608 158.139C163.004 158.097 163.506 157.864 163.486 157.364Z" fill="#63747D"/>
<path d="M163.233 155.231C163.48 155.571 163.379 156.02 163.008 156.235C162.637 156.451 162.136 156.35 161.89 156.011C161.643 155.671 161.743 155.222 162.114 155.006C162.485 154.791 162.986 154.892 163.233 155.231Z" fill="#63747D"/>
</g>
<defs>
<linearGradient id="paint0_linear_343_13150" x1="181.478" y1="230.316" x2="121.726" y2="126.823" gradientUnits="userSpaceOnUse">
<stop offset="0.7297" stop-color="#BEFABE"/>
</linearGradient>
<linearGradient id="paint1_linear_343_13150" x1="177.377" y1="223.213" x2="125.827" y2="133.925" gradientUnits="userSpaceOnUse">
<stop stop-color="#74DE4B"/>
<stop offset="0.041" stop-color="#76DF4D"/>
<stop offset="0.4041" stop-color="#82E65A"/>
<stop offset="0.7297" stop-color="#86E85F"/>
</linearGradient>
<linearGradient id="paint2_linear_343_13150" x1="168.717" y1="205.336" x2="162.456" y2="194.492" gradientUnits="userSpaceOnUse">
<stop offset="0.273" stop-color="#ECEEF7"/>
<stop offset="0.7703" stop-color="#9C9AA8"/>
</linearGradient>
<linearGradient id="paint3_linear_343_13150" x1="165.496" y1="201.895" x2="168.585" y2="196.545" gradientUnits="userSpaceOnUse">
<stop offset="0.7811" stop-color="#23222E"/>
</linearGradient>
<linearGradient id="paint4_linear_343_13150" x1="165.972" y1="197.932" x2="168.454" y2="198.644" gradientUnits="userSpaceOnUse">
<stop stop-color="#ADAEB8"/>
<stop offset="0.0762" stop-color="#BABCC5"/>
<stop offset="0.1993" stop-color="#C9CBD4"/>
<stop offset="0.3421" stop-color="#D2D4DC"/>
<stop offset="0.5486" stop-color="#D5D7DF"/>
<stop offset="0.6619" stop-color="#C0C1CA"/>
<stop offset="1" stop-color="#868490"/>
</linearGradient>
<linearGradient id="paint5_linear_343_13150" x1="167.126" y1="202.634" x2="169.133" y2="201.823" gradientUnits="userSpaceOnUse">
<stop stop-color="#ADAEB8"/>
<stop offset="0.0762" stop-color="#BABCC5"/>
<stop offset="0.1993" stop-color="#C9CBD4"/>
<stop offset="0.3421" stop-color="#D2D4DC"/>
<stop offset="0.5486" stop-color="#D5D7DF"/>
<stop offset="0.6619" stop-color="#C0C1CA"/>
<stop offset="1" stop-color="#868490"/>
</linearGradient>
<linearGradient id="paint6_linear_343_13150" x1="116.369" y1="175.112" x2="110.108" y2="164.268" gradientUnits="userSpaceOnUse">
<stop offset="0.273" stop-color="#ECEEF7"/>
<stop offset="0.7703" stop-color="#9C9AA8"/>
</linearGradient>
<linearGradient id="paint7_linear_343_13150" x1="113.149" y1="171.671" x2="116.237" y2="166.321" gradientUnits="userSpaceOnUse">
<stop offset="0.2622" stop-color="#393843"/>
</linearGradient>
<linearGradient id="paint8_linear_343_13150" x1="113.624" y1="167.708" x2="116.106" y2="168.42" gradientUnits="userSpaceOnUse">
<stop stop-color="#ADAEB8"/>
<stop offset="0.0762" stop-color="#BABCC5"/>
<stop offset="0.1993" stop-color="#C9CBD4"/>
<stop offset="0.3421" stop-color="#D2D4DC"/>
<stop offset="0.5486" stop-color="#D5D7DF"/>
<stop offset="0.6619" stop-color="#C0C1CA"/>
<stop offset="1" stop-color="#868490"/>
</linearGradient>
<linearGradient id="paint9_linear_343_13150" x1="114.778" y1="172.41" x2="116.785" y2="171.599" gradientUnits="userSpaceOnUse">
<stop stop-color="#ADAEB8"/>
<stop offset="0.0762" stop-color="#BABCC5"/>
<stop offset="0.1993" stop-color="#C9CBD4"/>
<stop offset="0.3421" stop-color="#D2D4DC"/>
<stop offset="0.5486" stop-color="#D5D7DF"/>
<stop offset="0.6619" stop-color="#C0C1CA"/>
<stop offset="1" stop-color="#868490"/>
</linearGradient>
<linearGradient id="paint10_linear_343_13150" x1="111.377" y1="168.316" x2="112.536" y2="166.309" gradientUnits="userSpaceOnUse">
<stop stop-color="#ADAEB8"/>
<stop offset="0.0762" stop-color="#BABCC5"/>
<stop offset="0.1993" stop-color="#C9CBD4"/>
<stop offset="0.3421" stop-color="#D2D4DC"/>
<stop offset="0.5486" stop-color="#D5D7DF"/>
<stop offset="0.6619" stop-color="#C0C1CA"/>
<stop offset="1" stop-color="#868490"/>
</linearGradient>
<clipPath id="clip0_343_13150">
<rect width="250" height="250" fill="white"/>
</clipPath>
</defs>
</svg>
