<svg width="262" height="262" viewBox="0 0 262 262" fill="none" xmlns="http://www.w3.org/2000/svg">
<path d="M242.084 110.431C241.835 100.709 241.245 91.0483 237.365 81.5922C227.577 57.7397 208.837 37.6055 186.806 24.472C167.763 13.1195 139.363 4.56941 118.424 16.253C106.685 22.803 97.1979 32.8486 86.7404 41.1483C82.0386 44.8797 77.0076 48.8526 71.3359 51.0037C64.0627 53.762 56.252 53.5309 49.0266 56.7598C31.6324 64.5328 14.8382 78.8244 10.6394 98.4692C5.60269 122.036 19.9215 143.468 25.4654 165.717C28.4779 177.805 27.3524 188.785 24.3069 200.723C21.9311 210.038 14.4048 222.894 15.1961 232.611C15.7201 239.043 17.2921 243.136 17.2921 243.136C17.2921 243.136 242.998 243.136 243.136 243.136C247.02 243.136 252.949 215.576 253.5 212.991C256.593 198.489 257.985 183.391 255.533 168.68C253.717 157.78 246.83 148.692 244.373 138.056C242.252 128.874 242.32 119.625 242.084 110.431Z" fill="#3A5749"/>
<path opacity="0.7" d="M242.084 110.431C241.835 100.709 241.245 91.0483 237.365 81.5922C227.577 57.7397 208.837 37.6055 186.806 24.472C167.763 13.1195 139.363 4.56941 118.424 16.253C106.685 22.803 97.1979 32.8486 86.7404 41.1483C82.0386 44.8797 77.0076 48.8526 71.3359 51.0037C64.0627 53.762 56.252 53.5309 49.0266 56.7598C31.6324 64.5328 14.8382 78.8244 10.6394 98.4692C5.60269 122.036 19.9215 143.468 25.4654 165.717C28.4779 177.805 27.3524 188.785 24.3069 200.723C21.9311 210.038 14.4048 222.894 15.1961 232.611C15.7201 239.043 17.2921 243.136 17.2921 243.136C17.2921 243.136 242.998 243.136 243.136 243.136C247.02 243.136 252.949 215.576 253.5 212.991C256.593 198.489 257.985 183.391 255.533 168.68C253.717 157.78 246.83 148.692 244.373 138.056C242.252 128.874 242.32 119.625 242.084 110.431Z" fill="#EDFFF5" fill-opacity="0.976471"/>
<g opacity="0.3">
<path d="M109.37 159.268H104.793V163.879H109.37V159.268Z" stroke="black" stroke-miterlimit="10"/>
<path d="M101.7 162.059H99.8447V163.879H101.7V162.059Z" stroke="black" stroke-miterlimit="10"/>
<path d="M15.0869 89.9932V223.17" stroke="black" stroke-miterlimit="10"/>
<path d="M54.3366 69.5069H47.3564V65.4092H26.3555V69.7767H15.0869V86.2528" stroke="black" stroke-miterlimit="10"/>
<path d="M232.453 174.584V206.224H221.79V89.4435H185.232V177.758H171.867V167.981H175.367V163.848H146.137V104.6H148.028V101.5H112.549V104.6H115.093V163.948H87.0524V206.393H72.328V76.6778H62.7226V69.5068H57.5015" stroke="black" stroke-miterlimit="10"/>
<path d="M253.19 148.002H231.044V151.791H232.452V171.418" stroke="black" stroke-miterlimit="10"/>
<path d="M223.247 88.1665H183.605V89.4346H223.247V88.1665Z" stroke="black" stroke-miterlimit="10"/>
<path d="M122.733 108.044H118.268V112.824H122.733V108.044Z" stroke="black" stroke-miterlimit="10"/>
<path d="M129.281 108.044H124.816V112.824H129.281V108.044Z" stroke="black" stroke-miterlimit="10"/>
<path d="M135.831 108.044H131.366V112.824H135.831V108.044Z" stroke="black" stroke-miterlimit="10"/>
<path d="M142.38 108.044H137.915V112.824H142.38V108.044Z" stroke="black" stroke-miterlimit="10"/>
<path d="M122.733 115.623H118.268V120.402H122.733V115.623Z" stroke="black" stroke-miterlimit="10"/>
<path d="M129.281 115.623H124.816V120.402H129.281V115.623Z" stroke="black" stroke-miterlimit="10"/>
<path d="M135.831 115.623H131.366V120.402H135.831V115.623Z" stroke="black" stroke-miterlimit="10"/>
<path d="M142.38 115.623H137.915V120.402H142.38V115.623Z" stroke="black" stroke-miterlimit="10"/>
<path d="M122.733 123.201H118.268V127.981H122.733V123.201Z" stroke="black" stroke-miterlimit="10"/>
<path d="M129.281 123.201H124.816V127.981H129.281V123.201Z" stroke="black" stroke-miterlimit="10"/>
<path d="M135.831 123.201H131.366V127.981H135.831V123.201Z" stroke="black" stroke-miterlimit="10"/>
<path d="M142.38 123.201H137.915V127.981H142.38V123.201Z" stroke="black" stroke-miterlimit="10"/>
<path d="M122.733 130.779H118.268V135.559H122.733V130.779Z" stroke="black" stroke-miterlimit="10"/>
<path d="M129.281 130.779H124.816V135.559H129.281V130.779Z" stroke="black" stroke-miterlimit="10"/>
<path d="M135.831 130.779H131.366V135.559H135.831V130.779Z" stroke="black" stroke-miterlimit="10"/>
<path d="M142.38 130.779H137.915V135.559H142.38V130.779Z" stroke="black" stroke-miterlimit="10"/>
<path d="M122.733 138.357H118.268V143.137H122.733V138.357Z" stroke="black" stroke-miterlimit="10"/>
<path d="M129.281 138.357H124.816V143.137H129.281V138.357Z" stroke="black" stroke-miterlimit="10"/>
<path d="M135.831 138.357H131.366V143.137H135.831V138.357Z" stroke="black" stroke-miterlimit="10"/>
<path d="M142.38 138.357H137.915V143.137H142.38V138.357Z" stroke="black" stroke-miterlimit="10"/>
<path d="M122.733 145.936H118.268V150.715H122.733V145.936Z" stroke="black" stroke-miterlimit="10"/>
<path d="M129.281 145.936H124.816V150.715H129.281V145.936Z" stroke="black" stroke-miterlimit="10"/>
<path d="M135.831 145.936H131.366V150.715H135.831V145.936Z" stroke="black" stroke-miterlimit="10"/>
<path d="M142.38 145.936H137.915V150.715H142.38V145.936Z" stroke="black" stroke-miterlimit="10"/>
<path d="M122.733 153.514H118.268V158.294H122.733V153.514Z" stroke="black" stroke-miterlimit="10"/>
<path d="M129.281 153.514H124.816V158.294H129.281V153.514Z" stroke="black" stroke-miterlimit="10"/>
<path d="M135.831 153.514H131.366V158.294H135.831V153.514Z" stroke="black" stroke-miterlimit="10"/>
<path d="M142.38 153.514H137.915V158.294H142.38V153.514Z" stroke="black" stroke-miterlimit="10"/>
<path d="M122.733 161.092H118.268V165.872H122.733V161.092Z" stroke="black" stroke-miterlimit="10"/>
<path d="M129.281 161.092H124.816V165.872H129.281V161.092Z" stroke="black" stroke-miterlimit="10"/>
<path d="M135.831 161.092H131.366V165.872H135.831V161.092Z" stroke="black" stroke-miterlimit="10"/>
<path d="M142.38 161.092H137.915V165.872H142.38V161.092Z" stroke="black" stroke-miterlimit="10"/>
<path d="M122.733 168.023H118.268V172.803H122.733V168.023Z" stroke="black" stroke-miterlimit="10"/>
<path d="M129.281 168.023H124.816V172.803H129.281V168.023Z" stroke="black" stroke-miterlimit="10"/>
<path d="M135.831 168.023H131.366V172.803H135.831V168.023Z" stroke="black" stroke-miterlimit="10"/>
<path d="M142.38 168.023H137.915V172.803H142.38V168.023Z" stroke="black" stroke-miterlimit="10"/>
<path d="M122.733 175.602H118.268V180.381H122.733V175.602Z" stroke="black" stroke-miterlimit="10"/>
<path d="M129.281 175.602H124.816V180.381H129.281V175.602Z" stroke="black" stroke-miterlimit="10"/>
<path d="M135.831 175.602H131.366V180.381H135.831V175.602Z" stroke="black" stroke-miterlimit="10"/>
<path d="M142.38 175.602H137.915V180.381H142.38V175.602Z" stroke="black" stroke-miterlimit="10"/>
<path d="M122.733 183.18H118.268V187.96H122.733V183.18Z" stroke="black" stroke-miterlimit="10"/>
<path d="M129.281 183.18H124.816V187.96H129.281V183.18Z" stroke="black" stroke-miterlimit="10"/>
<path d="M135.831 183.18H131.366V187.96H135.831V183.18Z" stroke="black" stroke-miterlimit="10"/>
<path d="M142.38 183.18H137.915V187.96H142.38V183.18Z" stroke="black" stroke-miterlimit="10"/>
<path d="M122.733 190.758H118.268V195.538H122.733V190.758Z" stroke="black" stroke-miterlimit="10"/>
<path d="M129.281 190.758H124.816V195.538H129.281V190.758Z" stroke="black" stroke-miterlimit="10"/>
<path d="M135.831 190.758H131.366V195.538H135.831V190.758Z" stroke="black" stroke-miterlimit="10"/>
<path d="M142.38 190.758H137.915V195.538H142.38V190.758Z" stroke="black" stroke-miterlimit="10"/>
<path d="M122.733 198.336H118.268V203.116H122.733V198.336Z" stroke="black" stroke-miterlimit="10"/>
<path d="M129.281 198.336H124.816V203.116H129.281V198.336Z" stroke="black" stroke-miterlimit="10"/>
<path d="M135.831 198.336H131.366V203.116H135.831V198.336Z" stroke="black" stroke-miterlimit="10"/>
<path d="M142.38 198.336H137.915V203.116H142.38V198.336Z" stroke="black" stroke-miterlimit="10"/>
<path d="M122.733 205.915H118.268V210.694H122.733V205.915Z" stroke="black" stroke-miterlimit="10"/>
<path d="M129.281 205.915H124.816V210.694H129.281V205.915Z" stroke="black" stroke-miterlimit="10"/>
<path d="M135.831 205.915H131.366V210.694H135.831V205.915Z" stroke="black" stroke-miterlimit="10"/>
<path d="M142.38 205.915H137.915V210.694H142.38V205.915Z" stroke="black" stroke-miterlimit="10"/>
<path d="M148.312 168.023H143.847V172.803H148.312V168.023Z" stroke="black" stroke-miterlimit="10"/>
<path d="M154.861 168.023H150.396V172.803H154.861V168.023Z" stroke="black" stroke-miterlimit="10"/>
<path d="M161.41 168.023H156.945V172.803H161.41V168.023Z" stroke="black" stroke-miterlimit="10"/>
<path d="M167.959 168.023H163.494V172.803H167.959V168.023Z" stroke="black" stroke-miterlimit="10"/>
<path d="M148.312 175.602H143.847V180.381H148.312V175.602Z" stroke="black" stroke-miterlimit="10"/>
<path d="M154.861 175.602H150.396V180.381H154.861V175.602Z" stroke="black" stroke-miterlimit="10"/>
<path d="M161.41 175.602H156.945V180.381H161.41V175.602Z" stroke="black" stroke-miterlimit="10"/>
<path d="M167.959 175.602H163.494V180.381H167.959V175.602Z" stroke="black" stroke-miterlimit="10"/>
<path d="M148.312 183.18H143.847V187.96H148.312V183.18Z" stroke="black" stroke-miterlimit="10"/>
<path d="M154.861 183.18H150.396V187.96H154.861V183.18Z" stroke="black" stroke-miterlimit="10"/>
<path d="M161.41 183.18H156.945V187.96H161.41V183.18Z" stroke="black" stroke-miterlimit="10"/>
<path d="M167.959 183.18H163.494V187.96H167.959V183.18Z" stroke="black" stroke-miterlimit="10"/>
<path d="M148.312 190.758H143.847V195.538H148.312V190.758Z" stroke="black" stroke-miterlimit="10"/>
<path d="M154.861 190.758H150.396V195.538H154.861V190.758Z" stroke="black" stroke-miterlimit="10"/>
<path d="M161.41 190.758H156.945V195.538H161.41V190.758Z" stroke="black" stroke-miterlimit="10"/>
<path d="M167.959 190.758H163.494V195.538H167.959V190.758Z" stroke="black" stroke-miterlimit="10"/>
<path d="M148.312 198.336H143.847V203.116H148.312V198.336Z" stroke="black" stroke-miterlimit="10"/>
<path d="M154.861 198.336H150.396V203.116H154.861V198.336Z" stroke="black" stroke-miterlimit="10"/>
<path d="M161.41 198.336H156.945V203.116H161.41V198.336Z" stroke="black" stroke-miterlimit="10"/>
<path d="M167.959 198.336H163.494V203.116H167.959V198.336Z" stroke="black" stroke-miterlimit="10"/>
<path d="M148.312 205.915H143.847V210.694H148.312V205.915Z" stroke="black" stroke-miterlimit="10"/>
<path d="M154.861 205.915H150.396V210.694H154.861V205.915Z" stroke="black" stroke-miterlimit="10"/>
<path d="M161.41 205.915H156.945V210.694H161.41V205.915Z" stroke="black" stroke-miterlimit="10"/>
<path d="M167.959 205.915H163.494V210.694H167.959V205.915Z" stroke="black" stroke-miterlimit="10"/>
<path d="M96.7931 168.023H92.3281V172.803H96.7931V168.023Z" stroke="black" stroke-miterlimit="10"/>
<path d="M103.342 168.023H98.877V172.803H103.342V168.023Z" stroke="black" stroke-miterlimit="10"/>
<path d="M109.891 168.023H105.426V172.803H109.891V168.023Z" stroke="black" stroke-miterlimit="10"/>
<path d="M116.441 168.023H111.976V172.803H116.441V168.023Z" stroke="black" stroke-miterlimit="10"/>
<path d="M96.7931 175.602H92.3281V180.381H96.7931V175.602Z" stroke="black" stroke-miterlimit="10"/>
<path d="M103.342 175.602H98.877V180.381H103.342V175.602Z" stroke="black" stroke-miterlimit="10"/>
<path d="M109.891 175.602H105.426V180.381H109.891V175.602Z" stroke="black" stroke-miterlimit="10"/>
<path d="M116.441 175.602H111.976V180.381H116.441V175.602Z" stroke="black" stroke-miterlimit="10"/>
<path d="M96.7931 183.18H92.3281V187.96H96.7931V183.18Z" stroke="black" stroke-miterlimit="10"/>
<path d="M103.342 183.18H98.877V187.96H103.342V183.18Z" stroke="black" stroke-miterlimit="10"/>
<path d="M109.891 183.18H105.426V187.96H109.891V183.18Z" stroke="black" stroke-miterlimit="10"/>
<path d="M116.441 183.18H111.976V187.96H116.441V183.18Z" stroke="black" stroke-miterlimit="10"/>
<path d="M96.7931 190.758H92.3281V195.538H96.7931V190.758Z" stroke="black" stroke-miterlimit="10"/>
<path d="M103.342 190.758H98.877V195.538H103.342V190.758Z" stroke="black" stroke-miterlimit="10"/>
<path d="M109.891 190.758H105.426V195.538H109.891V190.758Z" stroke="black" stroke-miterlimit="10"/>
<path d="M116.441 190.758H111.976V195.538H116.441V190.758Z" stroke="black" stroke-miterlimit="10"/>
<path d="M96.7931 198.336H92.3281V203.116H96.7931V198.336Z" stroke="black" stroke-miterlimit="10"/>
<path d="M103.342 198.336H98.877V203.116H103.342V198.336Z" stroke="black" stroke-miterlimit="10"/>
<path d="M109.891 198.336H105.426V203.116H109.891V198.336Z" stroke="black" stroke-miterlimit="10"/>
<path d="M116.441 198.336H111.976V203.116H116.441V198.336Z" stroke="black" stroke-miterlimit="10"/>
<path d="M96.7931 205.915H92.3281V210.694H96.7931V205.915Z" stroke="black" stroke-miterlimit="10"/>
<path d="M103.342 205.915H98.877V210.694H103.342V205.915Z" stroke="black" stroke-miterlimit="10"/>
<path d="M109.891 205.915H105.426V210.694H109.891V205.915Z" stroke="black" stroke-miterlimit="10"/>
<path d="M116.441 205.915H111.976V210.694H116.441V205.915Z" stroke="black" stroke-miterlimit="10"/>
<path d="M243.088 153.169H238.622V157.949H243.088V153.169Z" stroke="black" stroke-miterlimit="10"/>
<path d="M249.636 153.169H245.171V157.949H249.636V153.169Z" stroke="black" stroke-miterlimit="10"/>
<path d="M243.088 160.748H238.622V165.527H243.088V160.748Z" stroke="black" stroke-miterlimit="10"/>
<path d="M249.636 160.748H245.171V165.527H249.636V160.748Z" stroke="black" stroke-miterlimit="10"/>
<path d="M243.088 168.326H238.622V173.106H243.088V168.326Z" stroke="black" stroke-miterlimit="10"/>
<path d="M249.636 168.326H245.171V173.106H249.636V168.326Z" stroke="black" stroke-miterlimit="10"/>
<path d="M243.088 175.904H238.622V180.684H243.088V175.904Z" stroke="black" stroke-miterlimit="10"/>
<path d="M249.636 175.904H245.171V180.684H249.636V175.904Z" stroke="black" stroke-miterlimit="10"/>
<path d="M243.088 183.482H238.622V188.262H243.088V183.482Z" stroke="black" stroke-miterlimit="10"/>
<path d="M249.636 183.482H245.171V188.262H249.636V183.482Z" stroke="black" stroke-miterlimit="10"/>
<path d="M243.088 191.061H238.622V195.84H243.088V191.061Z" stroke="black" stroke-miterlimit="10"/>
<path d="M249.636 191.061H245.171V195.84H249.636V191.061Z" stroke="black" stroke-miterlimit="10"/>
<path d="M243.088 198.639H238.622V203.419H243.088V198.639Z" stroke="black" stroke-miterlimit="10"/>
<path d="M249.636 198.639H245.171V203.419H249.636V198.639Z" stroke="black" stroke-miterlimit="10"/>
<path d="M243.088 206.217H238.622V210.997H243.088V206.217Z" stroke="black" stroke-miterlimit="10"/>
<path d="M249.636 206.217H245.171V210.997H249.636V206.217Z" stroke="black" stroke-miterlimit="10"/>
<path d="M188.676 92.1992V214.283" stroke="black" stroke-miterlimit="10"/>
<path d="M193.104 187.243V214.283" stroke="black" stroke-miterlimit="10"/>
<path d="M193.104 129.699V184.366" stroke="black" stroke-miterlimit="10"/>
<path d="M193.104 92.1992V126.246" stroke="black" stroke-miterlimit="10"/>
<path d="M197.533 92.1992V214.283" stroke="black" stroke-miterlimit="10"/>
<path d="M201.962 121.067V214.283" stroke="black" stroke-miterlimit="10"/>
<path d="M201.962 92.1992V117.614" stroke="black" stroke-miterlimit="10"/>
<path d="M206.391 92.1992V214.283" stroke="black" stroke-miterlimit="10"/>
<path d="M210.819 150.99V214.283" stroke="black" stroke-miterlimit="10"/>
<path d="M210.819 92.1992V146.674" stroke="black" stroke-miterlimit="10"/>
<path d="M215.249 92.1992V214.283" stroke="black" stroke-miterlimit="10"/>
<path d="M219.677 92.1992V214.283" stroke="black" stroke-miterlimit="10"/>
<path d="M15.3433 78.9829H72.1988" stroke="black" stroke-miterlimit="10"/>
<path d="M19.9531 165.664V223.682" stroke="black" stroke-miterlimit="10"/>
<path d="M19.9531 82.0562V161.348" stroke="black" stroke-miterlimit="10"/>
<path d="M22.5142 119.916V223.682" stroke="black" stroke-miterlimit="10"/>
<path d="M22.5142 82.0562V116.464" stroke="black" stroke-miterlimit="10"/>
<path d="M30.1973 82.0562V223.682" stroke="black" stroke-miterlimit="10"/>
<path d="M32.7583 82.0562V223.682" stroke="black" stroke-miterlimit="10"/>
<path d="M40.4419 82.0562V223.682" stroke="black" stroke-miterlimit="10"/>
<path d="M43.0024 103.516V223.682" stroke="black" stroke-miterlimit="10"/>
<path d="M43.0024 82.0562V99.2004" stroke="black" stroke-miterlimit="10"/>
<path d="M50.686 82.0562V223.682" stroke="black" stroke-miterlimit="10"/>
<path d="M53.2466 217.454V223.682" stroke="black" stroke-miterlimit="10"/>
<path d="M53.2466 82.0562V212.851" stroke="black" stroke-miterlimit="10"/>
<path d="M60.9302 82.0562V223.682" stroke="black" stroke-miterlimit="10"/>
<path d="M63.4907 82.0562V223.682" stroke="black" stroke-miterlimit="10"/>
</g>
<path d="M42.1345 196.643C42.1345 205.573 35.9969 209.016 28.4261 209.016C20.8554 209.016 14.7178 205.573 14.7178 196.643C14.7178 187.713 20.8554 167.68 28.4261 167.68C35.9969 167.68 42.1345 187.714 42.1345 196.643Z" fill="#3A5749"/>
<path opacity="0.6" d="M42.1345 196.643C42.1345 205.573 35.9969 209.016 28.4261 209.016C20.8554 209.016 14.7178 205.573 14.7178 196.643C14.7178 187.713 20.8554 167.68 28.4261 167.68C35.9969 167.68 42.1345 187.714 42.1345 196.643Z" fill="#EDFFF5" fill-opacity="0.976471"/>
<path d="M22.9042 198.761L27.0108 200.642L26.2305 243.605H29.1869L28.6373 204.195L34.0229 201.269L36.7624 202.627L34.854 200.955L37.6422 198.97L30.5902 202.209L31.6005 200.119L29.5485 202.418L28.7143 202.523L28.5749 200.433L36.361 191.028L32.5536 194.581L32.9959 189.774L35.1003 184.34L32.7732 188.938L32.6846 183.608L31.8253 194.79L30.1899 196.984L29.9336 194.163L29.0507 197.611L28.3433 199.074L28.7814 187.683L31.2148 183.19L28.6456 185.803L28.1395 180.473L27.6715 190.087L22.4383 183.294L27.3739 191.028L27.332 194.79L23.7473 192.909L24.0109 189.878L23.1138 192.491L19.5275 190.505L27.2481 196.044L27.0946 199.388L17.6359 196.148L22.1674 198.447L17.1826 200.328L22.9042 198.761Z" fill="#B2B2B2"/>
<path d="M111.68 216.555C111.68 225.485 105.542 228.928 97.9715 228.928C90.4008 228.928 84.2632 225.485 84.2632 216.555C84.2632 207.625 90.4008 187.592 97.9715 187.592C105.542 187.592 111.68 207.626 111.68 216.555Z" fill="#3A5749"/>
<path opacity="0.6" d="M111.68 216.555C111.68 225.485 105.542 228.928 97.9715 228.928C90.4008 228.928 84.2632 225.485 84.2632 216.555C84.2632 207.625 90.4008 187.592 97.9715 187.592C105.542 187.592 111.68 207.626 111.68 216.555Z" fill="#EDFFF5" fill-opacity="0.976471"/>
<path d="M92.4496 218.673L96.5567 220.554L96.1422 243.365H98.4515L98.1832 224.107L103.568 221.181L106.308 222.539L104.399 220.867L107.188 218.882L100.136 222.121L101.146 220.032L99.0939 222.33L98.2597 222.435L98.1208 220.345L105.906 210.94L102.099 214.493L102.542 209.686L104.646 204.252L102.319 208.85L102.231 203.52L101.371 214.702L99.7353 216.896L99.4796 214.075L98.5961 217.523L97.8892 218.986L98.3268 207.595L100.76 203.102L98.1916 205.715L97.6849 200.385L97.2175 209.999L91.9843 203.206L96.9193 210.94L96.8774 214.702L93.2932 212.821L93.5563 209.79L92.6592 212.403L89.0735 210.417L96.7935 215.956L96.64 219.3L87.1813 216.06L91.7128 218.36L86.728 220.24L92.4496 218.673Z" fill="#B2B2B2"/>
<path d="M228.678 196.643C228.678 205.573 222.54 209.016 214.97 209.016C207.399 209.016 201.261 205.573 201.261 196.643C201.261 187.713 207.399 167.68 214.97 167.68C222.54 167.68 228.678 187.714 228.678 196.643Z" fill="#3A5749"/>
<path opacity="0.6" d="M228.678 196.643C228.678 205.573 222.54 209.016 214.97 209.016C207.399 209.016 201.261 205.573 201.261 196.643C201.261 187.713 207.399 167.68 214.97 167.68C222.54 167.68 228.678 187.714 228.678 196.643Z" fill="#EDFFF5" fill-opacity="0.976471"/>
<path d="M209.448 198.761L213.555 200.642L212.774 243.605H215.731L215.181 204.195L220.567 201.269L223.306 202.627L221.397 200.955L224.186 198.97L217.134 202.209L218.144 200.119L216.092 202.418L215.258 202.523L215.119 200.433L222.905 191.028L219.097 194.581L219.54 189.774L221.644 184.34L219.317 188.938L219.229 183.608L218.369 194.79L216.734 196.984L216.478 194.163L215.595 197.611L214.887 199.074L215.325 187.683L217.759 183.19L215.19 185.803L214.683 180.473L214.215 190.087L208.982 183.294L213.918 191.028L213.876 194.79L210.291 192.909L210.555 189.878L209.658 192.491L206.071 190.505L213.792 196.044L213.639 199.388L204.18 196.148L208.711 198.447L203.727 200.328L209.448 198.761Z" fill="#B2B2B2"/>
<g opacity="0.3">
<path d="M239.684 50.562C237.787 49.5271 236.924 50.3896 236.235 49.5271C235.545 48.6646 238.132 46.4224 232.958 44.1802C232.958 44.1802 232.613 39.3511 225.541 39.1787C218.469 39.0063 220.366 44.0084 218.469 45.2157C216.572 46.423 216.054 44.5256 214.157 45.7329C212.26 46.9402 213.122 49.3553 211.57 49.7001C210.017 50.0449 207.948 48.148 206.051 49.3553C204.153 50.5626 204.153 51.5975 203.291 51.5975C202.428 51.5975 200.703 50.9074 199.668 51.5975C198.634 52.2876 197.426 53.1496 197.426 53.1496H241.064C241.064 53.1496 241.581 51.5969 239.684 50.562Z" stroke="black" stroke-miterlimit="10"/>
<path d="M55.601 49.5373C54.2386 48.7943 53.6192 49.4137 53.1241 48.7943C52.6289 48.1749 54.4865 46.5652 50.7708 44.955C50.7708 44.955 50.5229 41.4877 45.4454 41.3635C40.3678 41.2398 41.7302 44.8313 40.3678 45.698C39.0054 46.5647 38.6339 45.2028 37.2715 46.0695C35.9091 46.9362 36.5285 48.6701 35.4139 48.918C34.2994 49.1658 32.8133 47.8034 31.4509 48.6701C30.0885 49.5368 30.0885 50.2799 29.4691 50.2799C28.8498 50.2799 27.6116 49.7847 26.8685 50.2799C26.1255 50.7756 25.2588 51.3944 25.2588 51.3944H56.5919C56.5919 51.3944 56.9634 50.2804 55.601 49.5373Z" stroke="black" stroke-miterlimit="10"/>
<path d="M213.49 43.4289C212.306 42.7829 211.767 43.3215 211.337 42.7829C210.906 42.2447 212.521 40.8451 209.291 39.4455C209.291 39.4455 209.076 36.4315 204.662 36.3235C200.248 36.2161 201.433 39.3381 200.248 40.0916C199.064 40.8451 198.741 39.6609 197.557 40.4144C196.373 41.1679 196.911 42.6754 195.942 42.8903C194.973 43.1056 193.681 41.9214 192.497 42.6749C191.313 43.4284 191.313 44.0745 190.775 44.0745C190.237 44.0745 189.16 43.6438 188.514 44.0745C187.868 44.5052 187.115 45.0434 187.115 45.0434H214.351C214.351 45.0434 214.674 44.075 213.49 43.4289Z" stroke="black" stroke-miterlimit="10"/>
</g>
<path d="M190.071 80.1659V61.0389H188.341V36.5518C188.341 28.2155 181.583 21.458 173.247 21.458H92.1705C83.8342 21.458 77.0767 28.216 77.0767 36.5518V201.292C77.0767 209.628 83.8347 216.385 92.1705 216.385H173.247C181.583 216.385 188.341 209.627 188.341 201.292V96.4676H190.071V85.1654H188.341V80.1664L190.071 80.1659Z" fill="#707070" stroke="#263238" stroke-miterlimit="10" stroke-linejoin="round"/>
<path d="M170.602 214.307H94.8146C85.9831 214.307 78.8237 207.147 78.8237 198.316V39.528C78.8237 30.6965 85.9831 23.5371 94.8146 23.5371H170.602C179.433 23.5371 186.593 30.6965 186.593 39.528V198.316C186.593 207.147 179.434 214.307 170.602 214.307Z" fill="#263238" stroke="#263238" stroke-miterlimit="10" stroke-linejoin="round"/>
<path d="M168.502 24.9082H138.572L138.542 25.0167C137.657 28.2068 135.617 30.2766 133.358 30.2766H132.059C129.801 30.2766 127.761 28.2063 126.875 25.0167L126.845 24.9082H96.9151C88.5788 24.9082 81.8213 31.6662 81.8213 40.002V190.511C81.8213 198.847 88.5793 205.604 96.9151 205.604H168.504C176.84 205.604 183.598 198.846 183.598 190.511V40.002C183.597 31.6657 176.839 24.9082 168.502 24.9082Z" fill="#3A5749" stroke="#263238" stroke-miterlimit="10" stroke-linecap="round" stroke-linejoin="round"/>
<path opacity="0.5" d="M168.502 24.9082H138.572L138.542 25.0167C137.657 28.2068 135.617 30.2766 133.358 30.2766H132.059C129.801 30.2766 127.761 28.2063 126.875 25.0167L126.845 24.9082H96.9151C88.5788 24.9082 81.8213 31.6662 81.8213 40.002V190.511C81.8213 198.847 88.5793 205.604 96.9151 205.604H168.504C176.84 205.604 183.598 198.846 183.598 190.511V40.002C183.597 31.6657 176.839 24.9082 168.502 24.9082Z" fill="#EDFFF5" fill-opacity="0.976471" stroke="#263238" stroke-miterlimit="10" stroke-linecap="round" stroke-linejoin="round"/>
<path d="M93.7861 67.182L85.7574 56.0947L84.6104 79.7989L91.4926 82.475L93.7861 67.182Z" fill="#3A5749"/>
<path d="M112.138 88.2098L96.0803 69.0938L94.1289 85.0055L111.834 94.1347L112.138 88.2098Z" fill="#3A5749"/>
<path d="M183.597 63.2836V40.0018C183.597 33.5215 179.512 27.9964 173.778 25.8569L155.567 46.8892C153.545 49.2242 153.811 52.758 156.158 54.765L171.663 68.0195C173.883 69.9175 177.193 69.777 179.244 67.6973L183.597 63.2836Z" fill="#3A5749"/>
<path d="M111.131 107.843L92.3035 99.8882L91.1099 109.62L110.608 118.032L111.131 107.843Z" fill="#3A5749"/>
<path d="M92.7236 96.4634L111.28 104.946L111.682 97.0949L93.7936 87.7378L92.7236 96.4634Z" fill="#3A5749"/>
<path d="M126.666 158.175L164.899 157.411L151.9 140.589L126.666 158.175Z" fill="#3A5749"/>
<path d="M159.017 128.928C159.017 135.228 164.142 140.354 170.442 140.354C176.742 140.354 181.868 135.228 181.868 128.928C181.868 122.628 176.742 117.502 170.442 117.502C164.142 117.502 159.017 122.628 159.017 128.928ZM180.809 128.928C180.809 134.644 176.159 139.295 170.442 139.295C164.726 139.295 160.076 134.644 160.076 128.928C160.076 123.211 164.726 118.561 170.442 118.561C176.158 118.561 180.809 123.211 180.809 128.928Z" fill="#EDFFF5" fill-opacity="0.976471"/>
<path d="M183.597 101.306L155.973 117.151L140.925 102.103L152.698 101.355L152.698 101.35C152.812 101.343 152.926 101.303 153.018 101.22L183.596 73.778V72.3554L173.636 81.2938L141.616 55.3726L166.358 24.9077H164.994L129.73 68.3269L90.3375 26.4132C90.0074 26.573 89.6861 26.7475 89.3702 26.9304L129.057 69.1569L125.955 72.9758L108.457 55.1912C105.393 52.0771 100.388 51.857 97.063 54.6898L92.3449 58.7089L81.8199 46.2329V47.8752L114.709 86.8592C114.686 86.9137 114.671 86.9708 114.667 87.0305L112.392 123.812L101.911 126.981L101.906 126.97C101.863 126.886 101.799 126.814 101.72 126.763L81.8193 113.876V115.137L100.682 127.352L81.8193 133.055V134.161L101.363 128.253L107.56 140.648L81.8193 152.548V153.714L108.033 141.595L116.538 158.604L81.8193 185.461V186.8L152.74 131.937L183.596 168.512V166.869L147.013 123.508L183.596 102.526V101.306H183.597ZM172.839 82.0106L163.75 90.1667L150.361 77.8632L157.925 69.9387L172.839 82.0106ZM140.949 56.1947L157.1 69.2696L149.223 77.522C149.125 77.6247 149.072 77.7626 149.077 77.9051C149.082 78.0471 149.143 78.1812 149.248 78.2776L162.959 90.8772L152.687 100.096L126.704 73.7356L140.949 56.1947ZM126.031 74.5625L151.473 100.372L128.715 101.817L116.07 86.8288L126.031 74.5625ZM93.0282 59.5179L97.75 55.4957C100.654 53.0214 105.026 53.2137 107.703 55.9338L125.284 73.8032L115.374 86.0045L93.0282 59.5179ZM115.669 87.9963L139.079 115.744L113.474 123.485L115.669 87.9963ZM139.815 116.617L145.35 123.177L120.835 134.511L113.793 124.495L139.818 116.627L139.815 116.617ZM102.392 127.942L112.725 124.818L119.859 134.962L108.523 140.203L102.392 127.942ZM117.392 157.943L108.996 141.15L120.476 135.842L129.455 148.611L117.392 157.943ZM152.057 131.127L130.294 147.963L121.454 135.391L146.057 124.016L152.057 131.127ZM146.321 122.687L129.564 102.824L139.85 102.172L139.673 102.349L155.021 117.697L146.321 122.687Z" fill="#EDFFF5" fill-opacity="0.976471"/>
<path d="M165.898 128.928C165.898 131.433 167.937 133.472 170.442 133.472C172.948 133.472 174.986 131.433 174.986 128.928C174.986 126.423 172.947 124.384 170.442 124.384C167.937 124.384 165.898 126.423 165.898 128.928ZM173.928 128.928C173.928 130.849 172.364 132.413 170.443 132.413C168.521 132.413 166.958 130.849 166.958 128.928C166.958 127.006 168.522 125.443 170.443 125.443C172.364 125.443 173.928 127.006 173.928 128.928Z" fill="#EDFFF5" fill-opacity="0.976471"/>
<path d="M81.8198 153.588V190.511C81.8198 198.847 88.5778 205.604 96.9136 205.604H168.503C176.839 205.604 183.596 198.846 183.596 190.511V153.588H81.8198Z" fill="#EDFFF5" fill-opacity="0.976471" stroke="#263238" stroke-miterlimit="10" stroke-linejoin="round"/>
<path d="M180.181 165.086C180.172 165.039 180.164 164.997 180.158 164.96C180.116 164.727 180.102 164.648 179.832 164.319C179.585 164.017 179.499 163.807 179.48 163.752C179.483 163.739 179.487 163.718 179.493 163.693C179.495 163.684 179.497 163.673 179.499 163.662C179.502 163.653 179.503 163.644 179.505 163.634C179.508 163.622 179.51 163.609 179.513 163.596C179.515 163.589 179.516 163.583 179.517 163.575C179.52 163.561 179.523 163.545 179.526 163.53C179.528 163.522 179.529 163.515 179.53 163.508C179.534 163.492 179.537 163.477 179.54 163.46C179.541 163.452 179.543 163.443 179.545 163.434C179.548 163.419 179.551 163.402 179.554 163.386C179.557 163.376 179.558 163.366 179.56 163.356C179.563 163.341 179.566 163.326 179.569 163.31C179.571 163.298 179.573 163.286 179.575 163.274C179.578 163.26 179.581 163.245 179.583 163.231C179.586 163.217 179.588 163.204 179.591 163.191C179.593 163.177 179.595 163.164 179.597 163.151C179.6 163.137 179.602 163.124 179.604 163.11C179.606 163.097 179.608 163.084 179.611 163.071C179.613 163.057 179.615 163.043 179.617 163.03C179.618 163.018 179.621 163.006 179.622 162.995C179.624 162.98 179.626 162.967 179.628 162.953C179.629 162.943 179.63 162.932 179.632 162.922C179.634 162.909 179.635 162.896 179.637 162.882C179.638 162.874 179.639 162.865 179.64 162.856C179.641 162.843 179.643 162.83 179.643 162.818C179.644 162.811 179.644 162.804 179.645 162.798C179.646 162.78 179.646 162.763 179.646 162.749C179.646 162.671 179.625 162.611 179.583 162.571C179.537 162.527 179.475 162.516 179.412 162.514C179.355 162.505 179.298 162.506 179.257 162.51C179.216 162.396 179.101 162.134 178.872 162.019C178.791 161.979 178.713 161.945 178.627 161.907C178.427 161.818 178.179 161.709 177.734 161.451C177.476 161.302 177.09 161.057 176.68 160.798C176.081 160.419 175.462 160.027 175.198 159.905C175.126 159.871 175.049 159.822 174.951 159.759C174.502 159.472 173.667 158.937 171.225 158.79C169.145 158.665 166.048 158.652 166.019 158.652C166.008 158.652 164.861 158.62 163.795 158.72C163.676 158.731 163.559 158.738 163.436 158.746C162.971 158.775 162.393 158.811 161.244 159.098C160.415 159.306 155.929 161.26 155.747 161.34C155.574 161.388 151.495 162.53 151.033 162.877C150.841 163.02 150.714 163.212 150.63 163.392C150.5 163.595 150.477 163.806 150.474 163.888C150.334 163.993 149.9 164.342 149.94 164.58C149.976 164.8 149.977 164.949 149.977 164.951V167.976C149.977 168.011 150.006 168.041 150.042 168.041H150.515C150.526 168.041 150.537 168.038 150.547 168.032L150.856 167.856H151.547C151.828 168.778 152.5 169.429 153.284 169.429H154.704C155.466 169.429 156.122 168.814 156.416 167.932L156.648 168.036C156.657 168.039 156.666 168.041 156.675 168.041H159.701C160.011 168.864 160.644 169.429 161.374 169.429H162.794C163.604 169.429 164.294 168.733 164.557 167.763H164.99H168.236C168.488 168.732 169.171 169.429 169.975 169.429H171.005C171.01 169.429 171.015 169.429 171.02 169.427C171.039 169.428 171.059 169.429 171.078 169.429C171.729 169.429 172.282 168.732 172.485 167.763H174.103C174.355 168.732 175.038 169.429 175.841 169.429H176.872C176.879 169.429 176.886 169.427 176.893 169.425C176.91 169.426 176.928 169.429 176.945 169.429C177.595 169.429 178.149 168.732 178.352 167.763H178.736H179.802C179.813 167.763 179.825 167.76 179.835 167.754C180.121 167.586 180.041 167.245 179.951 167.071C179.988 166.863 180.247 165.413 180.181 165.086Z" fill="#263238"/>
<path d="M166.419 160.396C166.419 160.396 164.337 161.775 164.371 161.877C164.405 161.977 165.58 162.145 165.882 162.145C166.184 162.145 175.282 162.145 175.282 162.145C175.282 162.145 176.424 161.91 176.592 161.709C176.759 161.508 174.242 159.929 173.335 159.627C172.429 159.325 170.661 159.346 168.87 159.489C167.532 159.596 166.419 160.396 166.419 160.396Z" fill="#EDFFF5" fill-opacity="0.976471"/>
<path d="M155.817 161.474H162.223C162.223 161.474 163.163 161.541 163.935 161.037C164.708 160.533 165.178 160.362 165.882 159.926C166.588 159.489 166.856 159.355 166.856 159.355C166.856 159.355 164.472 159.154 163.096 159.154C161.719 159.154 161.115 159.321 161.115 159.321L155.817 161.474Z" fill="#EDFFF5" fill-opacity="0.976471"/>
<path d="M106.908 161.368C106.908 163.831 104.142 164.718 104.13 166.597V166.726H106.815V167.555H103.231V166.854C103.231 164.216 105.998 163.702 105.998 161.403C105.998 160.563 105.718 160.119 105.041 160.119C104.376 160.119 104.084 160.597 104.084 161.321V162.044H103.231V161.379C103.231 160.13 103.804 159.301 105.064 159.301C106.336 159.301 106.908 160.119 106.908 161.368Z" fill="#263238"/>
<path d="M112.571 167.543H111.696L110.342 161.041V167.555H109.548V159.383H110.82L112.163 165.908L113.458 159.383H114.731V167.555H113.867V160.983L112.571 167.543Z" fill="#263238"/>
<path d="M116.576 159.383V167.555H115.666V159.383H116.576Z" fill="#263238"/>
<path d="M118.315 167.555H117.498V159.383H118.654L120.545 165.29V159.383H121.35V167.555H120.405L118.315 160.947L118.315 167.555Z" fill="#263238"/>
<path d="M98.556 163.53C98.556 166.485 96.1629 168.883 93.2034 168.883C90.2491 168.883 87.856 166.485 87.856 163.53C87.856 160.571 90.2491 158.178 93.2034 158.178C94.5747 158.178 95.8187 158.686 96.7613 159.533C97.8623 160.507 98.556 161.936 98.556 163.53Z" fill="#EDFFF5" fill-opacity="0.976471" stroke="#263238" stroke-miterlimit="10" stroke-linejoin="round"/>
<path d="M96.7616 159.533L93.2036 163.53V158.178C94.5749 158.177 95.8189 158.685 96.7616 159.533Z" fill="#263238"/>
<path d="M88.771 175.847H130.773" stroke="#263238" stroke-miterlimit="10" stroke-linecap="round" stroke-linejoin="round"/>
<path d="M88.771 179.376H130.773" stroke="#263238" stroke-miterlimit="10" stroke-linecap="round" stroke-linejoin="round"/>
<path d="M88.771 182.906H130.773" stroke="#263238" stroke-miterlimit="10" stroke-linecap="round" stroke-linejoin="round"/>
<path d="M168.502 24.9082H138.572L138.542 25.0167C137.657 28.2063 135.617 30.2766 133.358 30.2766H132.059C129.801 30.2766 127.76 28.2063 126.875 25.0167L126.845 24.9082H96.9151C88.5788 24.9082 81.8213 31.6662 81.8213 40.002V42.7137H183.598V40.002C183.597 31.6657 176.839 24.9082 168.502 24.9082Z" fill="#EDFFF5" fill-opacity="0.976471" stroke="#263238" stroke-miterlimit="10" stroke-linejoin="round"/>
<path d="M132.397 27.0481C133.18 27.0481 133.814 26.4138 133.814 25.6313C133.814 24.8487 133.18 24.2144 132.397 24.2144C131.615 24.2144 130.98 24.8487 130.98 25.6313C130.98 26.4138 131.615 27.0481 132.397 27.0481Z" fill="#707070"/>
<path d="M90.8646 31.061C90.8646 32.4946 89.2544 33.0108 89.2476 34.1049V34.1798H90.8101V34.6624H88.7246V34.2548C88.7246 32.7194 90.3349 32.4208 90.3349 31.0819C90.3349 30.593 90.1714 30.3347 89.7778 30.3347C89.3906 30.3347 89.2208 30.613 89.2208 31.0343V31.4556H88.7251V31.0678C88.7251 30.3405 89.0579 29.8584 89.7915 29.8584C90.5319 29.8584 90.8646 30.3342 90.8646 31.061Z" fill="#263238"/>
<path d="M93.4672 31.0542V31.1763C93.4672 31.6657 93.2707 32.012 92.8897 32.1546C93.29 32.3039 93.4672 32.6639 93.4672 33.1397V33.5065C93.4672 34.2333 93.1276 34.7091 92.3935 34.7091C91.6667 34.7091 91.3271 34.2333 91.3271 33.5065V33.18H91.8229V33.54C91.8229 33.9681 91.9994 34.2265 92.3799 34.2265C92.7671 34.2265 92.9369 33.9749 92.9369 33.4929V33.1261C92.9369 32.6571 92.7398 32.4333 92.3385 32.4197H92.0534V31.9439H92.3657C92.7189 31.9303 92.9369 31.7065 92.9369 31.2921V31.0746C92.9369 30.5857 92.7666 30.3342 92.3799 30.3342C91.9994 30.3342 91.8229 30.5988 91.8229 31.0269V31.2716H91.3271V31.0542C91.3271 30.3274 91.6667 29.8584 92.3935 29.8584C93.1276 29.8584 93.4672 30.3274 93.4672 31.0542Z" fill="#263238"/>
<path d="M94.4942 31.4146V32.0737H93.9844V31.4146H94.4942ZM94.4942 34.0026V34.6618H93.9844V34.0026H94.4942Z" fill="#263238"/>
<path d="M95.5683 31.8429C95.7176 31.5846 95.9555 31.4488 96.2751 31.4488C96.8867 31.4488 97.1581 31.8974 97.1581 32.5765V33.5076C97.1581 34.2344 96.8117 34.7102 96.0849 34.7102C95.3576 34.7102 95.0181 34.2344 95.0181 33.5076V33.1885H95.5138V33.5417C95.5138 33.9698 95.6904 34.2281 96.0713 34.2281C96.4517 34.2281 96.6283 33.9698 96.6283 33.5417V32.6179C96.6283 32.1898 96.4517 31.9314 96.0713 31.9314C95.7794 31.9314 95.5819 32.0944 95.5347 32.4413V32.5503H95.039L95.1679 29.9072H97.0428V30.3825H95.6432L95.5683 31.8429Z" fill="#263238"/>
<path d="M99.8015 31.0473V31.1359H99.3058V31.0138C99.3058 30.5857 99.1292 30.3347 98.742 30.3347C98.3412 30.3347 98.1646 30.593 98.1646 31.1023V32.1687C98.2935 31.8427 98.5518 31.6593 98.9322 31.6593C99.5437 31.6593 99.8157 32.1011 99.8157 32.787V33.5075C99.8157 34.2343 99.4552 34.7101 98.7284 34.7101C97.9948 34.7101 97.6343 34.2343 97.6343 33.5075V31.0819C97.6343 30.3279 97.9744 29.8589 98.7284 29.8589C99.462 29.8584 99.8015 30.3205 99.8015 31.0473ZM98.164 32.8279V33.541C98.164 33.9691 98.3406 34.2275 98.7279 34.2275C99.1083 34.2275 99.2917 33.9691 99.2917 33.541V32.8279C99.2917 32.3998 99.1083 32.1414 98.7279 32.1414C98.3406 32.1414 98.164 32.3998 98.164 32.8279Z" fill="#263238"/>
<path d="M151.722 31.2573H150.379V34.6146H151.722V31.2573Z" fill="#263238"/>
<path d="M153.512 30.5845H152.169V34.614H153.512V30.5845Z" fill="#263238"/>
<path d="M155.303 30.1069H153.96V34.6139H155.303V30.1069Z" fill="#263238"/>
<path d="M157.093 29.2764H155.75V34.6138H157.093V29.2764Z" fill="#263238"/>
<path d="M173.711 34.5217H165.654V29.5977H173.711V34.5217ZM166.101 34.0742H173.263V30.0457H166.101V34.0742Z" fill="#263238"/>
<path d="M171.025 30.5332H166.773V33.5876H171.025V30.5332Z" fill="#263238"/>
<path d="M174.445 31.48H173.432V32.6401H174.445V31.48Z" fill="#263238"/>
<path d="M162.7 33.4507C162.647 33.4507 162.594 33.437 162.546 33.4082C160.906 32.4336 159.822 33.338 159.777 33.3763C159.652 33.4853 159.462 33.4711 159.353 33.3464C159.245 33.2212 159.256 33.033 159.381 32.9241C159.439 32.8727 160.825 31.6858 162.853 32.891C162.996 32.9754 163.043 33.1609 162.958 33.3034C162.902 33.3983 162.802 33.4507 162.7 33.4507Z" fill="#263238"/>
<path d="M163.306 32.439C163.254 32.439 163.201 32.4254 163.152 32.3966C160.781 30.9865 159.188 32.351 159.172 32.3636C159.047 32.4741 158.858 32.461 158.748 32.3363C158.638 32.2116 158.65 32.0214 158.774 31.9119C158.794 31.8941 160.716 30.2482 163.46 31.8789C163.603 31.9632 163.65 32.1487 163.565 32.2913C163.508 32.3866 163.409 32.439 163.306 32.439Z" fill="#263238"/>
<path d="M163.857 31.2681C163.805 31.2681 163.752 31.2545 163.703 31.2257C160.701 29.4404 158.704 31.1209 158.621 31.1937C158.496 31.3027 158.306 31.2891 158.197 31.1643C158.087 31.0396 158.1 30.8505 158.224 30.741C158.248 30.72 160.62 28.6911 164.011 30.7079C164.154 30.7923 164.201 30.9778 164.116 31.1203C164.059 31.2157 163.96 31.2681 163.857 31.2681Z" fill="#263238"/>
<path d="M161.039 34.7104C161.456 34.7104 161.794 34.3723 161.794 33.9553C161.794 33.5383 161.456 33.2002 161.039 33.2002C160.622 33.2002 160.284 33.5383 160.284 33.9553C160.284 34.3723 160.622 34.7104 161.039 34.7104Z" fill="#263238"/>
<path d="M156.478 52.541C156.47 52.5002 156.463 52.464 156.458 52.432C156.422 52.2319 156.409 52.1648 156.178 51.8819C155.966 51.6225 155.892 51.4417 155.875 51.3945C155.878 51.383 155.881 51.3652 155.886 51.3437C155.888 51.3353 155.89 51.3264 155.892 51.3165C155.893 51.3086 155.895 51.3013 155.897 51.2929C155.899 51.2829 155.901 51.2714 155.903 51.2604C155.904 51.2541 155.906 51.2483 155.907 51.242C155.91 51.23 155.912 51.2164 155.915 51.2033C155.916 51.197 155.917 51.1912 155.919 51.1844C155.921 51.1713 155.924 51.1577 155.926 51.1441C155.928 51.1367 155.93 51.1294 155.931 51.1215C155.934 51.1079 155.936 51.0943 155.939 51.0801C155.941 51.0717 155.942 51.0634 155.944 51.0545C155.946 51.0414 155.948 51.0283 155.951 51.0146C155.953 51.0042 155.955 50.9942 155.957 50.9837C155.959 50.9717 155.961 50.9591 155.964 50.9465C155.966 50.935 155.968 50.9235 155.97 50.9119C155.972 50.9004 155.974 50.8889 155.976 50.8779C155.978 50.8658 155.98 50.8543 155.981 50.8422C155.983 50.8312 155.985 50.8202 155.987 50.8092C155.989 50.7972 155.99 50.7851 155.992 50.7736C155.993 50.7636 155.995 50.7537 155.997 50.7437C155.998 50.7317 156 50.7196 156.001 50.7081C156.002 50.6992 156.004 50.6903 156.005 50.6814C156.007 50.6693 156.008 50.6583 156.009 50.6473C156.01 50.6394 156.011 50.6316 156.012 50.6248C156.013 50.6132 156.014 50.6022 156.014 50.5918C156.015 50.586 156.015 50.5802 156.016 50.5745C156.017 50.5593 156.018 50.5451 156.018 50.5325C156.018 50.4655 155.999 50.4136 155.963 50.3795C155.923 50.3418 155.871 50.3324 155.817 50.3308C155.767 50.3235 155.718 50.3245 155.684 50.3277C155.649 50.2297 155.55 50.0049 155.353 49.9064C155.283 49.8718 155.216 49.8424 155.142 49.8094C154.971 49.7335 154.757 49.6391 154.375 49.4175C154.154 49.2896 153.821 49.079 153.47 48.8563C152.955 48.5303 152.423 48.1934 152.197 48.0886C152.134 48.0598 152.068 48.0173 151.984 47.9634C151.599 47.7166 150.881 47.257 148.783 47.1307C146.995 47.0233 144.334 47.0123 144.309 47.0123C144.299 47.0118 143.314 46.9845 142.398 47.0705C142.296 47.0799 142.195 47.0862 142.09 47.093C141.691 47.1176 141.194 47.1486 140.206 47.3954C139.494 47.5735 135.639 49.2524 135.483 49.3216C135.334 49.363 131.829 50.3439 131.431 50.6421C131.267 50.7657 131.157 50.9303 131.085 51.0848C130.974 51.2588 130.954 51.4412 130.951 51.5109C130.83 51.6015 130.458 51.9012 130.492 52.1056C130.523 52.2948 130.524 52.4231 130.524 52.4242V55.0238C130.524 55.0547 130.549 55.0793 130.579 55.0793H130.986C130.996 55.0793 131.005 55.0767 131.014 55.072L131.28 54.92H131.873C132.115 55.7123 132.692 56.2719 133.366 56.2719H134.586C135.241 56.2719 135.805 55.7427 136.057 54.9855L136.257 55.0741C136.264 55.0772 136.272 55.0788 136.28 55.0788H138.88C139.146 55.7857 139.69 56.2714 140.317 56.2714H141.537C142.233 56.2714 142.825 55.6735 143.052 54.8398H143.424H146.214C146.43 55.6719 147.017 56.2714 147.707 56.2714H148.592C148.597 56.2714 148.601 56.2709 148.605 56.2698C148.622 56.2709 148.639 56.2714 148.655 56.2714C149.214 56.2714 149.69 55.6719 149.864 54.8398H151.254C151.471 55.6719 152.058 56.2714 152.748 56.2714H153.633C153.64 56.2714 153.645 56.2698 153.652 56.2677C153.667 56.2688 153.681 56.2714 153.696 56.2714C154.255 56.2714 154.731 55.6719 154.905 54.8398H155.235H156.15C156.16 54.8398 156.17 54.8372 156.178 54.832C156.424 54.6879 156.356 54.395 156.278 54.2451C156.312 54.0675 156.534 52.8214 156.478 52.541Z" fill="#263238"/>
<path d="M144.653 48.5105C144.653 48.5105 142.864 49.6963 142.893 49.7828C142.922 49.8692 143.932 50.0133 144.192 50.0133C144.451 50.0133 152.27 50.0133 152.27 50.0133C152.27 50.0133 153.251 49.8116 153.395 49.6381C153.539 49.4647 151.375 48.1091 150.597 47.8497C149.818 47.5903 148.3 47.6082 146.76 47.7313C145.609 47.8235 144.653 48.5105 144.653 48.5105Z" fill="#EDFFF5" fill-opacity="0.976471"/>
<path d="M135.542 49.4362H141.047C141.047 49.4362 141.855 49.4938 142.518 49.061C143.182 48.6282 143.586 48.4809 144.192 48.1063C144.797 47.7316 145.028 47.6158 145.028 47.6158C145.028 47.6158 142.98 47.4429 141.797 47.4429C140.615 47.4429 140.096 47.587 140.096 47.587L135.542 49.4362Z" fill="#EDFFF5" fill-opacity="0.976471"/>
<path d="M106.618 122.028C104.412 121.855 101.817 122.837 100.823 124.222C99.8293 125.607 101.649 128.949 101.649 128.949C101.649 128.949 107.817 126.234 108.812 124.849C109.806 123.464 108.824 122.201 106.618 122.028ZM104.097 125.538C103.215 125.469 102.822 124.964 103.22 124.41C103.617 123.856 104.655 123.463 105.537 123.532C106.42 123.601 106.813 124.106 106.415 124.661C106.018 125.215 104.98 125.608 104.097 125.538Z" fill="#263238"/>
<path d="M101.649 114.367C98.7806 114.367 96.4551 116.692 96.4551 119.561C96.4551 122.429 101.649 128.702 101.649 128.702C101.649 128.702 106.843 122.429 106.843 119.561C106.843 116.692 104.517 114.367 101.649 114.367ZM101.649 121.638C100.501 121.638 99.5713 120.708 99.5713 119.561C99.5713 118.413 100.501 117.483 101.649 117.483C102.797 117.483 103.727 118.413 103.727 119.561C103.727 120.708 102.796 121.638 101.649 121.638Z" fill="#3A5749" stroke="#263238" stroke-miterlimit="10" stroke-linecap="round" stroke-linejoin="round"/>
<path d="M140.317 56.2715L139.812 56.8741" stroke="#263238" stroke-width="2" stroke-linecap="round" stroke-linejoin="round"/>
<path d="M138.806 58.0723L116.557 84.5945C115.869 85.4141 115.854 86.6051 116.522 87.4414L137.779 114.071C138.763 115.303 138.205 117.139 136.703 117.616L105.604 127.496" stroke="#263238" stroke-width="2" stroke-linecap="round" stroke-linejoin="round" stroke-dasharray="2.99 2.99"/>
<path d="M104.858 127.734L104.109 127.972" stroke="#263238" stroke-width="2" stroke-linecap="round" stroke-linejoin="round"/>
<path d="M132.185 79.1353V84.9448L120.537 83.3708L132.185 89.0284V93.9597H160.775V79.1353H132.185Z" fill="#263238"/>
<path d="M135.207 84.4657C135.207 83.2165 135.825 82.4111 137.075 82.4111C138.335 82.4111 138.954 83.2165 138.954 84.4657V88.6803C138.954 89.9295 138.335 90.7464 137.075 90.7464C135.825 90.7464 135.207 89.9295 135.207 88.6803V84.4657ZM136.106 88.7384C136.106 89.4736 136.421 89.9174 137.075 89.9174C137.74 89.9174 138.043 89.4736 138.043 88.7384V84.4191C138.043 83.6719 137.74 83.2286 137.075 83.2286C136.421 83.2286 136.106 83.6724 136.106 84.4191V88.7384Z" fill="#EDFFF5" fill-opacity="0.976471"/>
<path d="M140.694 89.5322V90.6646H139.818V89.5322H140.694Z" fill="#EDFFF5" fill-opacity="0.976471"/>
<path d="M144.944 89.0181V90.6645H144.057V89.0181H141.418V88.1891L143.951 82.4922H144.944V88.1891H145.597V89.0181H144.944ZM142.259 88.1891H144.057V84.1973L142.259 88.1891Z" fill="#EDFFF5" fill-opacity="0.976471"/>
<path d="M149.498 87.1154L149.019 87.9208V90.6645H148.108V82.4927H149.019V86.4389L151.19 82.4927H152.112L150.046 86.2167L152.182 90.6645H151.248L149.498 87.1154Z" fill="#EDFFF5" fill-opacity="0.976471"/>
<path d="M155.895 90.6524H155.019L153.665 84.1501V90.6645H152.871V82.4927H154.143L155.486 89.018L156.782 82.4927H158.055V90.6645H157.19V84.0924L155.895 90.6524Z" fill="#EDFFF5" fill-opacity="0.976471"/>
<path d="M73.8308 234.897L74.8552 237.799C74.8552 237.799 77.9285 238.995 78.4404 239.848C78.9529 240.702 78.9529 243.604 78.9529 243.604H66.3182C66.3182 243.604 65.9766 240.873 65.9766 239.336C65.9766 237.799 65.9766 235.751 65.9766 235.751L73.8308 234.897Z" fill="#EDFFF5" fill-opacity="0.976471" stroke="#263238" stroke-miterlimit="10" stroke-linecap="round" stroke-linejoin="round"/>
<path d="M66.167 242.239H78.9023C78.9526 242.987 78.9531 243.605 78.9531 243.605H66.3184C66.3184 243.605 66.2456 243.018 66.167 242.239Z" fill="#EDFFF5" fill-opacity="0.976471" stroke="#263238" stroke-miterlimit="10" stroke-linecap="round" stroke-linejoin="round"/>
<path d="M72.4426 231.141L71.5891 161.821L56.3936 162.638L41.1981 161.821L40.3445 231.141C40.3445 231.141 38.8076 232.507 38.8076 233.19C38.8076 233.872 38.8076 234.897 38.8076 234.897L38.9784 235.75C38.9784 235.75 42.7345 236.092 43.5881 236.262C44.4417 236.433 46.6613 235.75 46.6613 235.75C46.6613 235.75 47.6857 230.457 47.6857 229.945C47.6857 229.433 55.8811 172.236 55.8811 172.236L56.3936 172.163L56.9061 172.236C56.9061 172.236 65.1014 229.433 65.1014 229.945C65.1014 230.457 66.1258 235.75 66.1258 235.75C66.1258 235.75 68.3455 236.433 69.1991 236.262C70.0527 236.091 73.8092 235.75 73.8092 235.75L73.9801 234.897C73.9801 234.897 73.9801 233.872 73.9801 233.19C73.9795 232.507 72.4426 231.141 72.4426 231.141Z" fill="#263238" stroke="#263238" stroke-miterlimit="10" stroke-linecap="round" stroke-linejoin="round"/>
<path d="M78.2348 122.635C78.2348 122.635 83.0875 124.874 84.7051 125.995C86.3227 127.115 85.9496 131.345 86.4469 133.71C86.9447 136.074 87.5667 137.567 86.9447 138.189C86.3227 138.811 85.4513 139.931 85.4513 139.931C85.4513 139.931 86.0733 145.904 86.3222 150.508C86.5711 155.112 84.0826 156.729 82.0914 157.974C80.1007 159.218 77.8606 159.467 73.7546 159.218C69.6485 158.97 66.7864 156.979 66.4133 156.107C66.0402 155.237 62.5562 145.655 64.049 140.18C65.5424 134.705 70.5194 123.009 72.8837 121.765C75.2485 120.519 78.2348 122.635 78.2348 122.635Z" fill="#263238" stroke="#263238" stroke-miterlimit="10" stroke-linecap="round" stroke-linejoin="round"/>
<path d="M40.6565 155.983L39.7856 162.204C39.7856 162.204 44.6384 165.19 48.2472 166.435C51.856 167.679 56.0862 168.675 56.0862 168.675L57.0818 166.559L57.8285 168.923C57.8285 168.923 60.0681 168.675 63.6769 166.933C67.2857 165.191 72.5115 161.706 72.5115 161.706L72.3874 155.36L70.0231 113.924L60.5664 109.818L51.3587 110.565L44.3906 114.422L40.6565 155.983Z" fill="#EDFFF5" fill-opacity="0.976471" stroke="#263238" stroke-miterlimit="10" stroke-linecap="round" stroke-linejoin="round"/>
<path d="M66.3572 112.334L60.5654 109.819L51.3577 110.566L47.8149 112.527C48.4747 114.818 50.9427 121.866 56.4594 122.386C61.5961 122.871 65.0713 115.581 66.3572 112.334Z" fill="#EDFFF5" fill-opacity="0.976471" stroke="#263238" stroke-miterlimit="10" stroke-linecap="round" stroke-linejoin="round"/>
<path d="M51.1049 111.384C51.1049 111.384 53.6054 114.718 56.0132 115.644C58.421 116.57 60.5511 112.402 61.1992 111.291C61.8474 110.18 62.0329 109.809 62.0329 109.809L51.3569 110.565C51.3569 110.565 50.179 110.18 51.1049 111.384Z" fill="#263238" stroke="#263238" stroke-miterlimit="10" stroke-linecap="round" stroke-linejoin="round"/>
<path d="M60.5657 109.818C60.5657 109.818 60.3168 163.324 60.6899 163.448C61.063 163.572 72.6355 158.844 73.2575 158.347C73.8795 157.849 74.6262 156.978 74.6262 156.978L74.8751 136.944C74.8751 136.944 78.7323 139.433 79.8526 139.682C80.9724 139.931 84.4564 139.309 84.7053 137.94C84.9542 136.571 80.5993 125.372 79.479 121.888C78.3592 118.404 76.6169 115.169 76.1196 114.049C75.6218 112.929 70.6443 112.307 67.658 111.436C64.6718 110.565 60.5657 109.818 60.5657 109.818Z" fill="#3A5749" stroke="#263238" stroke-miterlimit="10" stroke-linecap="round" stroke-linejoin="round"/>
<path d="M60.6904 120.768L62.0591 118.778C62.0591 118.778 65.419 121.64 65.792 120.644C66.1651 119.649 63.6054 111.614 63.1789 110.067C62.7523 108.521 60.4415 108.574 60.3168 109.196C60.1926 109.818 60.6904 120.768 60.6904 120.768Z" fill="#3A5749" stroke="#263238" stroke-miterlimit="10" stroke-linecap="round" stroke-linejoin="round"/>
<path d="M67.6584 111.437C67.6584 111.437 67.4095 129.231 68.2804 133.834C69.1513 138.438 74.8755 151.006 74.8755 151.006V146.277C74.8755 146.277 71.5161 133.959 71.0183 130.35C70.5205 126.742 70.6452 112.308 70.6452 112.308L67.6584 111.437Z" fill="#263238" stroke="#263238" stroke-miterlimit="10" stroke-linecap="round" stroke-linejoin="round"/>
<path d="M52.4574 111.52C52.4574 111.52 52.6575 161.698 52.6575 162.397C52.6575 163.097 51.5582 162.697 50.7586 162.297C49.9589 161.897 41.9627 159.199 39.7635 158.299C37.5642 157.399 37.2645 157.999 37.3646 157C37.4647 156 37.4647 152.702 37.4647 152.202C37.4647 151.702 38.1642 141.507 38.1642 141.507C38.1642 141.507 33.466 143.206 30.6673 142.106C27.8687 141.007 26.5691 139.708 26.8689 138.708C27.1686 137.708 32.4662 124.714 32.8661 123.514C33.2659 122.315 34.2651 115.518 34.8651 114.918C35.4651 114.318 48.9586 110.92 49.7582 110.32C50.5579 109.72 51.3575 109.82 51.6572 109.82C51.9575 109.821 52.2572 109.621 52.4574 111.52Z" fill="#3A5749" stroke="#263238" stroke-miterlimit="10" stroke-linecap="round" stroke-linejoin="round"/>
<path d="M40.88 127.755C41.0068 128.664 41.0723 129.534 40.9623 130.012C40.6625 131.311 38.1636 141.507 38.1636 141.507" stroke="#263238" stroke-miterlimit="10" stroke-linecap="round" stroke-linejoin="round"/>
<path d="M40.2627 124.514C40.2627 124.514 40.3942 125.066 40.5478 125.833" stroke="#263238" stroke-miterlimit="10" stroke-linecap="round" stroke-linejoin="round"/>
<path d="M51.0577 109.121C51.0577 109.121 50.158 110.22 50.0579 111.12C49.9578 112.02 48.6583 116.818 47.9588 118.317C47.2592 119.816 46.959 120.716 46.959 120.716C46.959 120.716 47.8587 121.015 48.7584 120.515C49.6581 120.015 51.1573 119.216 51.1573 119.216L52.3567 120.515L52.4568 111.519C52.4568 111.519 52.5569 108.321 51.0577 109.121Z" fill="#3A5749" stroke="#263238" stroke-miterlimit="10" stroke-linecap="round" stroke-linejoin="round"/>
<path d="M48.2586 101.324C48.2586 101.324 46.6594 99.2253 46.5593 100.425C46.4592 101.624 46.1595 103.123 46.9591 104.123C47.7587 105.123 48.3587 105.423 48.3587 105.423C48.3587 105.423 49.6583 108.821 50.558 109.72C51.4577 110.62 51.9576 112.619 54.456 113.619C56.955 114.618 58.2545 114.018 59.554 113.119C60.1796 112.685 62.4528 109.221 62.7525 108.521C63.0522 107.821 63.1523 105.322 63.1523 105.322C63.1523 105.322 64.8516 102.923 64.9517 101.624C65.0518 100.324 64.8516 99.5245 64.4518 99.5245C64.052 99.5245 63.5521 99.5245 63.5521 99.5245C63.5521 99.5245 64.7515 94.6267 64.6515 93.0274C64.5514 91.4282 61.6526 88.2297 59.4539 86.73C57.2547 85.2308 52.6571 85.7302 50.2582 87.2299C47.8594 88.729 45.3604 91.9275 45.9604 93.2271C46.5604 94.5266 48.2586 101.324 48.2586 101.324Z" fill="#EDFFF5" fill-opacity="0.976471" stroke="#263238" stroke-miterlimit="10" stroke-linecap="round" stroke-linejoin="round"/>
<path d="M54.8418 107.33C54.8418 107.33 55.2149 107.952 56.3352 108.201C57.455 108.45 57.9528 107.33 57.9528 107.33" stroke="#263238" stroke-miterlimit="10" stroke-linecap="round" stroke-linejoin="round"/>
<path d="M54.3438 109.196C54.3438 109.196 55.0905 109.818 56.4591 109.818C57.8278 109.818 58.5745 109.072 58.5745 109.072" stroke="#263238" stroke-miterlimit="10" stroke-linecap="round" stroke-linejoin="round"/>
<path d="M48.2589 101.324C48.2589 101.324 48.1787 101.22 48.0571 101.075L48.2589 101.324Z" stroke="#263238" stroke-miterlimit="10" stroke-linecap="round" stroke-linejoin="round"/>
<path d="M59.4534 86.731C57.2542 85.2318 52.6566 85.7312 50.2577 87.2309C47.8589 88.73 45.3599 91.9285 45.9599 93.228C46.5599 94.5276 48.2587 101.324 48.2587 101.324C48.2587 101.324 49.0583 101.525 49.358 100.824C49.6578 100.125 49.1584 99.1251 49.6578 98.2254C50.0628 97.4966 51.2471 97.551 51.9508 97.3865C51.4294 97.7271 50.7597 98.357 51.5573 98.7248C52.8568 99.3248 53.6564 98.4251 56.355 97.0255C59.0536 95.6259 59.3539 94.2268 59.3539 94.2268C59.3539 94.2268 60.6534 95.3261 60.6534 96.5256C60.6534 97.725 60.5533 99.4243 61.2534 99.624C61.9529 99.8242 62.4528 99.9237 62.4528 99.9237C62.4528 99.9237 62.1531 101.223 62.8526 101.323C63.3666 101.397 63.5563 100.177 63.6213 99.5239C63.5794 99.5239 63.5521 99.5239 63.5521 99.5239C63.5521 99.5239 64.7516 94.6261 64.6515 93.0268C64.5514 91.4286 61.6526 88.2301 59.4534 86.731Z" fill="#263238" stroke="#263238" stroke-miterlimit="10" stroke-linecap="round" stroke-linejoin="round"/>
<path d="M57.9541 103.424C57.9541 103.424 59.2536 104.523 61.2527 103.224" stroke="#263238" stroke-miterlimit="10" stroke-linecap="round" stroke-linejoin="round"/>
<path d="M50.7578 103.424C50.7578 103.424 52.0573 104.523 54.0564 103.224" stroke="#263238" stroke-miterlimit="10" stroke-linecap="round" stroke-linejoin="round"/>
<path d="M50.458 101.924C50.458 101.924 52.0573 101.225 53.6565 101.624" stroke="#263238" stroke-miterlimit="10" stroke-linecap="round" stroke-linejoin="round"/>
<path d="M58.0542 101.624C58.0542 101.624 59.4538 101.124 60.953 101.724" stroke="#263238" stroke-miterlimit="10" stroke-linecap="round" stroke-linejoin="round"/>
<path d="M29.4672 138.308C29.4672 138.308 35.6646 137.908 36.5643 137.908C37.464 137.908 38.1635 139.807 38.3637 140.907C38.5638 142.006 38.6634 144.505 38.6634 144.505C38.6634 144.505 35.7646 148.603 33.7656 149.303C31.7665 150.002 27.3686 148.703 26.2687 147.803C25.1688 146.904 24.2697 142.806 24.8691 141.406C25.4691 140.007 26.7681 139.108 27.268 138.608" fill="#3A5749"/>
<path d="M29.4672 138.308C29.4672 138.308 35.6646 137.908 36.5643 137.908C37.464 137.908 38.1635 139.807 38.3637 140.907C38.5638 142.006 38.6634 144.505 38.6634 144.505C38.6634 144.505 35.7646 148.603 33.7656 149.303C31.7665 150.002 27.3686 148.703 26.2687 147.803C25.1688 146.904 24.2697 142.806 24.8691 141.406C25.4691 140.007 26.7681 139.108 27.268 138.608" stroke="#263238" stroke-miterlimit="10" stroke-linecap="round" stroke-linejoin="round"/>
<path d="M45.0396 126.052L48.1128 138.772L53.9177 137.491L51.4423 125.113L45.0396 126.052Z" fill="#263238" stroke="#263238" stroke-miterlimit="10" stroke-linecap="round" stroke-linejoin="round"/>
<path d="M41.7619 137.808L43.4613 136.108C43.4613 136.108 44.1608 133.41 44.5606 132.61C44.9604 131.811 46.0598 130.411 46.0598 130.411L46.4596 131.711C46.4596 131.711 50.2581 130.011 50.8575 130.011C51.4575 130.011 51.6571 130.611 51.6571 130.911C51.6571 131.211 47.4588 133.21 47.4588 133.21L46.959 133.909C46.959 133.909 50.5573 132.51 51.1572 132.11C51.7572 131.71 52.4568 131.61 52.4568 131.61C52.4568 131.61 52.9567 132.41 52.7565 132.809C52.5563 133.209 52.3567 133.709 52.3567 133.709C52.3567 133.709 52.4295 133.903 52.2728 134.488C52.0135 135.453 51.0765 136.097 51.0765 136.097C51.0765 136.097 49.7576 137.707 49.0581 138.407C48.3586 139.107 45.8596 139.707 45.8596 139.707L41.1619 142.706C41.1619 142.706 40.4624 142.106 40.4624 140.407C40.4624 138.708 41.7619 137.808 41.7619 137.808Z" fill="#EDFFF5" fill-opacity="0.976471" stroke="#263238" stroke-miterlimit="10" stroke-linecap="round" stroke-linejoin="round"/>
<path d="M52.4574 133.21C52.4574 133.21 48.4593 135.209 47.4595 135.909" stroke="#263238" stroke-miterlimit="10" stroke-linecap="round" stroke-linejoin="round"/>
<path d="M47.6123 137.624L51.077 136.098" stroke="#263238" stroke-miterlimit="10" stroke-linecap="round" stroke-linejoin="round"/>
<path d="M42.5615 136.809C42.5615 136.809 41.262 138.408 41.3621 139.907C41.4622 141.406 42.5615 143.905 42.5615 143.905C42.5615 143.905 40.7621 145.105 40.0626 145.804C39.3631 146.504 37.7638 146.903 37.1638 145.604C36.5638 144.304 35.5646 141.406 35.9644 139.707C36.3642 138.008 37.1638 137.508 37.5636 137.408C37.9634 137.308 41.862 136.909 42.5615 136.809Z" fill="#3A5749" stroke="#263238" stroke-miterlimit="10" stroke-linecap="round" stroke-linejoin="round"/>
<path d="M74.6264 130.848C74.6264 130.848 72.884 125.621 72.2621 124.626C71.6401 123.631 70.6445 123.009 70.2714 123.009C69.8983 123.009 67.6582 122.387 67.0362 122.387C66.4142 122.387 65.2939 122.76 65.5428 123.88C65.7917 125 65.7917 125 65.7917 125C65.7917 125 65.5428 126.991 65.5428 127.488C65.5428 127.986 66.5384 128.857 66.5384 128.857C66.5384 128.857 66.6626 130.35 66.9115 130.848C67.1604 131.346 71.1423 132.465 71.1423 132.465L71.5154 132.963L72.2621 133.336L74.6264 130.848Z" fill="#EDFFF5" fill-opacity="0.976471" stroke="#263238" stroke-miterlimit="10" stroke-linecap="round" stroke-linejoin="round"/>
<path d="M76.7416 133.088C76.7416 133.088 80.1015 134.954 81.0966 135.327C82.0917 135.701 83.3362 135.825 84.7054 137.941C86.0741 140.056 85.5763 143.54 84.7054 145.407C83.8345 147.273 80.9724 147.771 79.1059 147.771C77.2394 147.771 75.3729 143.914 74.3773 142.793C73.3817 141.674 71.7642 138.438 71.7642 138.438L76.7416 133.088Z" fill="#3A5749" stroke="#263238" stroke-miterlimit="10" stroke-linecap="round" stroke-linejoin="round"/>
<path d="M75.124 130.101C75.124 130.101 72.6356 131.47 71.5158 132.963C70.396 134.457 69.4004 135.825 69.4004 136.572C69.4004 137.319 71.5158 140.181 71.5158 140.181L77.9861 133.461C77.9861 133.461 76.4927 130.972 75.124 130.101Z" fill="#3A5749" stroke="#263238" stroke-miterlimit="10" stroke-linecap="round" stroke-linejoin="round"/>
<path d="M38.8077 234.897L37.7833 237.799C37.7833 237.799 34.71 238.995 34.1975 239.848C33.6851 240.702 33.6851 243.604 33.6851 243.604H46.3197C46.3197 243.604 46.6614 240.873 46.6614 239.336C46.6614 237.799 46.6614 235.751 46.6614 235.751L38.8077 234.897Z" fill="#EDFFF5" fill-opacity="0.976471" stroke="#263238" stroke-miterlimit="10" stroke-linecap="round" stroke-linejoin="round"/>
<path d="M46.4717 242.239H33.7364C33.6861 242.987 33.6855 243.605 33.6855 243.605H46.3202C46.3202 243.605 46.3931 243.018 46.4717 242.239Z" fill="#EDFFF5" fill-opacity="0.976471" stroke="#263238" stroke-miterlimit="10" stroke-linecap="round" stroke-linejoin="round"/>
<path d="M184.724 237.021H164.693C164.693 237.021 165.264 227.453 168.829 223.318C172.394 219.182 177.812 218.755 182.233 221.179C186.654 223.603 186.939 234.44 186.939 234.44H221.162C221.162 234.44 224.299 222.176 231.429 221.321C238.56 220.465 240.27 232.872 240.27 232.872L239.041 237.021H184.724Z" fill="#263238" stroke="#263238" stroke-miterlimit="10" stroke-linecap="round" stroke-linejoin="round"/>
<path d="M233.195 234.037C233.195 231.791 232.625 229.728 231.673 228.095V224.469H227.603C223.72 224.469 220.573 228.753 220.573 234.037C220.573 239.321 223.72 243.605 227.603 243.605H231.673V239.979C232.625 238.346 233.195 236.283 233.195 234.037Z" fill="#263238" stroke="#263238" stroke-miterlimit="10" stroke-linecap="round" stroke-linejoin="round"/>
<path d="M231.964 243.605C235.078 243.605 237.603 239.329 237.603 234.053C237.603 228.778 235.078 224.502 231.964 224.502C228.85 224.502 226.326 228.778 226.326 234.053C226.326 239.329 228.85 243.605 231.964 243.605Z" fill="#263238" stroke="#263238" stroke-miterlimit="10" stroke-linecap="round" stroke-linejoin="round"/>
<path d="M231.964 241.396C234.358 241.396 236.298 238.108 236.298 234.053C236.298 229.998 234.358 226.711 231.964 226.711C229.571 226.711 227.63 229.998 227.63 234.053C227.63 238.108 229.571 241.396 231.964 241.396Z" fill="#EDFFF5" fill-opacity="0.976471" stroke="#263238" stroke-miterlimit="10" stroke-linecap="round" stroke-linejoin="round"/>
<path d="M177.599 233.854C177.599 231.565 177.018 229.462 176.048 227.799V224.104H170.436C166.479 224.104 163.272 228.469 163.272 233.854C163.272 239.239 166.479 243.605 170.436 243.605H176.048V239.909C177.019 238.246 177.599 236.143 177.599 233.854Z" fill="#263238" stroke="#263238" stroke-miterlimit="10" stroke-linecap="round" stroke-linejoin="round"/>
<path d="M176.048 243.605C180.005 243.605 183.212 239.239 183.212 233.854C183.212 228.469 180.005 224.104 176.048 224.104C172.092 224.104 168.885 228.469 168.885 233.854C168.885 239.239 172.092 243.605 176.048 243.605Z" fill="#263238" stroke="#263238" stroke-miterlimit="10" stroke-linecap="round" stroke-linejoin="round"/>
<path d="M176.048 241.349C179.089 241.349 181.555 237.994 181.555 233.854C181.555 229.715 179.089 226.359 176.048 226.359C173.007 226.359 170.542 229.715 170.542 233.854C170.542 237.994 173.007 241.349 176.048 241.349Z" fill="#EDFFF5" fill-opacity="0.976471" stroke="#263238" stroke-miterlimit="10" stroke-linecap="round" stroke-linejoin="round"/>
<path d="M208.782 224.502C208.684 224.502 208.587 224.506 208.491 224.514V224.469H204.421C200.538 224.469 197.391 228.753 197.391 234.037C197.391 239.321 200.538 243.605 204.421 243.605H208.491V243.592C208.587 243.6 208.684 243.605 208.782 243.605C211.895 243.605 214.42 239.328 214.42 234.053C214.42 228.778 211.896 224.502 208.782 224.502Z" fill="#263238" stroke="#263238" stroke-miterlimit="10" stroke-linecap="round" stroke-linejoin="round"/>
<path d="M144.081 224.104H138.469C134.513 224.104 131.305 228.469 131.305 233.854C131.305 239.239 134.513 243.605 138.469 243.605H144.081C148.038 243.605 151.245 239.239 151.245 233.854C151.245 228.469 148.038 224.104 144.081 224.104Z" fill="#263238" stroke="#263238" stroke-miterlimit="10" stroke-linecap="round" stroke-linejoin="round"/>
<path d="M244.5 226.757C244.235 225.43 244.368 225.298 243.174 223.838C241.979 222.379 241.714 221.45 241.714 221.45C241.714 221.45 242.378 218.399 242.378 217.471C242.378 216.542 240.918 216.807 240.918 216.807C240.918 216.807 240.521 215.348 239.459 214.817C238.398 214.286 237.469 214.021 234.948 212.562C232.428 211.102 226.677 207.259 224.952 206.463C223.227 205.667 220.98 202.781 209.345 202.082C201.037 201.582 188.782 201.538 188.782 201.538C188.782 201.538 184.272 201.405 180.027 201.803C177.731 202.018 175.678 201.867 169.985 203.29C166.691 204.114 148.27 212.145 148.27 212.145C148.27 212.145 131.536 216.818 129.727 218.175C127.918 219.532 127.616 222.095 127.616 222.095C127.616 222.095 125.354 223.753 125.505 224.658C125.656 225.562 125.656 226.165 125.656 226.165V238.118H127.525L128.806 237.386H150.219L151.866 238.118H167.116H167.77C167.718 237.516 167.689 235.804 167.689 235.18C167.689 227.67 171.52 221.582 176.246 221.582C180.971 221.582 184.802 227.67 184.802 235.18C184.802 235.804 184.773 236.418 184.722 237.02H224.728C224.716 236.719 224.707 236.415 224.707 236.108C224.707 229.111 227.921 223.439 231.884 223.439C235.847 223.439 239.06 229.112 239.06 236.108C239.06 236.415 239.051 236.719 239.039 237.02H243.25C244.522 236.273 243.57 234.583 243.57 234.583C243.57 234.583 244.766 228.083 244.5 226.757Z" fill="#EDFFF5" fill-opacity="0.976471" stroke="#263238" stroke-miterlimit="10" stroke-linecap="round" stroke-linejoin="round"/>
<path d="M190.375 208.171C190.375 208.171 182.151 213.623 182.283 214.021C182.416 214.419 187.059 215.082 188.253 215.082C189.447 215.082 225.398 215.082 225.398 215.082C225.398 215.082 229.909 214.154 230.572 213.358C231.235 212.562 221.286 206.327 217.704 205.133C214.123 203.939 207.14 204.023 200.061 204.589C194.77 205.013 190.375 208.171 190.375 208.171Z" fill="#263238" stroke="#263238" stroke-miterlimit="10" stroke-linecap="round" stroke-linejoin="round"/>
<path d="M209.545 219.327H205.83C205.428 219.327 205.101 219.001 205.101 218.598C205.101 218.195 205.428 217.869 205.83 217.869H209.545C209.948 217.869 210.275 218.195 210.275 218.598C210.275 219.001 209.948 219.327 209.545 219.327Z" stroke="#263238" stroke-miterlimit="10" stroke-linecap="round" stroke-linejoin="round"/>
<path d="M226.061 219.327H222.347C221.944 219.327 221.617 219.001 221.617 218.598C221.617 218.195 221.944 217.869 222.347 217.869H226.061C226.464 217.869 226.791 218.195 226.791 218.598C226.791 219.001 226.464 219.327 226.061 219.327Z" stroke="#263238" stroke-miterlimit="10" stroke-linecap="round" stroke-linejoin="round"/>
<path d="M209.876 215.481L211.468 217.869L211.336 232.196L212.132 233.788L211.336 235.645L212.397 236.839" stroke="#263238" stroke-miterlimit="10" stroke-linecap="round" stroke-linejoin="round"/>
<path d="M227.918 214.817L228.979 216.012L226.99 225.032L222.745 235.115C222.745 235.115 220.092 235.38 219.694 235.38C219.296 235.38 189.049 235.645 189.049 235.645C189.049 235.645 188.651 234.981 188.253 234.185C187.855 233.39 186.529 222.379 186.529 219.858C186.529 217.338 185.334 215.215 185.334 215.215" stroke="#263238" stroke-miterlimit="10" stroke-linecap="round" stroke-linejoin="round"/>
<path d="M148.481 212.43H173.793C173.793 212.43 177.507 212.695 180.558 210.705C183.609 208.715 185.466 208.039 188.253 206.314C191.038 204.59 192.1 204.059 192.1 204.059C192.1 204.059 182.681 203.263 177.242 203.263C171.803 203.263 169.415 203.927 169.415 203.927L148.481 212.43Z" fill="#263238" stroke="#263238" stroke-miterlimit="10" stroke-linecap="round" stroke-linejoin="round"/>
<path d="M168.528 217.501C168.528 217.501 171.671 217.073 172.201 216.807C172.732 216.542 175.385 213.491 175.385 213.491" stroke="#263238" stroke-miterlimit="10" stroke-linecap="round" stroke-linejoin="round"/>
<path d="M155.958 219.227L168.528 217.501C168.528 217.501 159.573 222.924 158.258 222.924C156.943 222.924 147.166 223.252 147.166 223.252L149.631 221.116L152.507 219.637L155.958 219.227Z" fill="#666666" stroke="#263238" stroke-miterlimit="10" stroke-linecap="round" stroke-linejoin="round"/>
<path d="M166.819 218.519L161.75 219.152L158.09 221.592L148.348 222.228L147.166 223.252C147.166 223.252 156.943 222.924 158.258 222.924C159.209 222.924 164.153 220.089 166.819 218.519Z" fill="#EDFFF5" fill-opacity="0.976471" stroke="#263238" stroke-miterlimit="10" stroke-linecap="round" stroke-linejoin="round"/>
<path d="M129.748 220.87L129.091 223.006L127.618 222.096C127.618 222.096 127.59 220.602 128.68 219.556L129.748 220.87Z" fill="#666666" stroke="#263238" stroke-miterlimit="10" stroke-linecap="round" stroke-linejoin="round"/>
<path d="M129.26 222.454L127.683 221.483C127.615 221.847 127.618 222.096 127.618 222.096L129.091 223.006L129.26 222.454Z" fill="#EDFFF5" fill-opacity="0.976471" stroke="#263238" stroke-miterlimit="10" stroke-linecap="round" stroke-linejoin="round"/>
<path d="M128.679 219.555C128.679 219.555 129.747 221.116 132.87 221.937L133.527 224.649H135.827L137.963 222.266C137.963 222.266 153.656 220.54 154.067 220.376C154.478 220.212 155.957 219.226 155.957 219.226C155.957 219.226 138.62 220.459 138.127 220.459C137.634 220.459 133.198 220.212 133.198 220.212L129.172 218.815L128.679 219.555Z" fill="#263238" stroke="#263238" stroke-miterlimit="10" stroke-linecap="round" stroke-linejoin="round"/>
<path d="M158.777 233.829C158.777 234.509 158.059 235.061 157.174 235.061C156.289 235.061 155.572 234.509 155.572 233.829C155.572 233.148 156.289 232.596 157.174 232.596C158.059 232.597 158.777 233.148 158.777 233.829Z" fill="#263238" stroke="#263238" stroke-miterlimit="10" stroke-linecap="round" stroke-linejoin="round"/>
<path d="M242.378 217.47C242.378 216.542 241.517 216.85 240.919 216.807L238.266 217.47L237.735 219.328L241.715 221.45C241.715 221.45 242.378 218.399 242.378 217.47Z" fill="#263238" stroke="#263238" stroke-miterlimit="10" stroke-linecap="round" stroke-linejoin="round"/>
<path d="M233.488 215.79C235.568 215.732 237.387 215.711 238.862 215.736" stroke="#263238" stroke-miterlimit="10" stroke-linecap="round" stroke-linejoin="round"/>
<path d="M193.221 218.313C204.816 217.4 220.219 216.283 230.796 215.88" stroke="#263238" stroke-miterlimit="10" stroke-linecap="round" stroke-linejoin="round"/>
<path d="M180.031 219.39C182.499 219.181 186.374 218.857 191.02 218.486" stroke="#263238" stroke-miterlimit="10" stroke-linecap="round" stroke-linejoin="round"/>
<path d="M177.124 219.641C177.124 219.641 177.743 219.587 178.861 219.491" stroke="#263238" stroke-miterlimit="10" stroke-linecap="round" stroke-linejoin="round"/>
<path d="M128.597 224.896H143.305L146.755 226.785L151.356 234.262L146.837 235.577H126.79L125.886 233.276L126.379 226.21L128.597 224.896Z" fill="#263238" stroke="#263238" stroke-miterlimit="10" stroke-linecap="round" stroke-linejoin="round"/>
<path d="M139.853 226.703H128.679V231.386H139.853V226.703Z" fill="#EDFFF5" fill-opacity="0.976471"/>
<path d="M146.361 227.467H141.374" stroke="#737373" stroke-miterlimit="10" stroke-linecap="round" stroke-linejoin="round"/>
<path d="M147.674 229.305H141.637" stroke="#737373" stroke-miterlimit="10" stroke-linecap="round" stroke-linejoin="round"/>
<path d="M148.986 231.142H141.637" stroke="#737373" stroke-miterlimit="10" stroke-linecap="round" stroke-linejoin="round"/>
<path d="M150.299 232.979H134.549" stroke="#737373" stroke-miterlimit="10" stroke-linecap="round" stroke-linejoin="round"/>
<path d="M150.299 234.628H126.882" stroke="#737373" stroke-miterlimit="10" stroke-linecap="round" stroke-linejoin="round"/>
<path d="M196.724 210.094H190.606C189.079 210.903 187.864 211.731 187.922 212.382C188.07 214.03 188.654 214.669 189.386 214.669C190.118 214.669 195.486 214.669 195.486 214.669C195.486 214.669 198.171 213.144 197.927 211.619C197.835 211.042 197.324 210.52 196.724 210.094Z" fill="#EDFFF5" fill-opacity="0.976471" stroke="#263238" stroke-miterlimit="10" stroke-linecap="round" stroke-linejoin="round"/>
<path d="M187.922 212.381H195.792" stroke="#263238" stroke-miterlimit="10" stroke-linecap="round" stroke-linejoin="round"/>
<path d="M189.386 214.669L189.752 216.652L190.284 217.18L191.948 216.835C191.948 216.835 191.216 217.018 191.399 214.639L189.386 214.669Z" fill="#263238" stroke="#263238" stroke-miterlimit="10" stroke-linecap="round" stroke-linejoin="round"/>
<path d="M149.126 227.182H167.006" stroke="#263238" stroke-miterlimit="10" stroke-linecap="round" stroke-linejoin="round"/>
<path d="M151.603 235.659H158.751L159.946 234.813L157.915 226.879L152.096 224.156L157.612 227.637L159.326 233.934L157.724 235.166L151.603 235.659Z" fill="#263238" stroke="#263238" stroke-miterlimit="10" stroke-linecap="round" stroke-linejoin="round"/>
<path d="M10.3599 243.604H249.766" stroke="#263238" stroke-miterlimit="10" stroke-linecap="round" stroke-linejoin="round"/>
</svg>
