<svg width="8" height="15" viewBox="0 0 8 15" fill="none" xmlns="http://www.w3.org/2000/svg">
<path d="M4.27244 10.5998V10.9628L4.61756 11.0752C4.92312 11.1747 5.16353 11.3359 5.36598 11.5534L5.51429 11.7127H5.73198H5.83266L5.83266 13.7028H5.71637H5.50236L5.35462 13.8577C5.15617 14.0656 4.92115 14.2265 4.61756 14.3254L4.61752 14.3253L4.60729 14.3289C3.89942 14.5766 3.11308 14.3691 2.62126 13.8566L2.47366 13.7028H2.2605H2.15201L2.15201 11.7127H2.2527H2.47038L2.61869 11.5534C2.82114 11.3359 3.06156 11.1747 3.36711 11.0752L3.71223 10.9628V10.5998L3.71223 7.97517H4.27244V10.5998ZM1.65201 0.995033L0.591797 0.995033L0.591797 0.5L7.39287 0.5V0.995033L6.33266 0.995033L5.83266 0.995033V1.49503V2.24255L5.83266 2.74255H6.33266L7.39287 2.74255V6.22765L0.591797 6.22765L0.591797 2.74255L1.65201 2.74255H2.15201V2.24255V1.49503L2.15201 0.995033L1.65201 0.995033ZM3.99234 13.9553C4.32512 13.9553 4.64834 13.8288 4.88989 13.5974C5.13216 13.3652 5.27244 13.0457 5.27244 12.7078C5.27244 12.3699 5.13216 12.0503 4.88989 11.8182C4.64834 11.5867 4.32512 11.4603 3.99234 11.4603C3.65955 11.4603 3.33633 11.5867 3.09478 11.8182C2.85251 12.0503 2.71223 12.3699 2.71223 12.7078C2.71223 13.0457 2.85251 13.3652 3.09478 13.5974C3.33633 13.8288 3.65955 13.9553 3.99234 13.9553ZM3.99234 5.73262C4.32512 5.73262 4.64834 5.60614 4.88989 5.37469C5.13216 5.14254 5.27244 4.82301 5.27244 4.4851C5.27244 4.14718 5.13216 3.82766 4.88989 3.59551C4.64834 3.36406 4.32512 3.23758 3.99234 3.23758C3.65955 3.23758 3.33633 3.36406 3.09478 3.59551C2.85251 3.82766 2.71223 4.14718 2.71223 4.4851C2.71223 4.82301 2.85251 5.14254 3.09478 5.37469C3.33633 5.60614 3.65955 5.73262 3.99234 5.73262Z" stroke="#090909"/>
</svg>
