<svg width="200" height="200" viewBox="0 0 200 200" fill="none" xmlns="http://www.w3.org/2000/svg">
<path d="M81.6156 24.8392C90.7589 12.4856 109.241 12.4856 118.384 24.8392C123.415 31.6356 131.784 35.1023 140.147 33.8535C155.348 31.5835 168.416 44.6524 166.146 59.853C164.898 68.2158 168.364 76.5853 175.161 81.6156C187.514 90.7589 187.514 109.241 175.161 118.384C168.364 123.415 164.898 131.784 166.146 140.147C168.416 155.348 155.348 168.416 140.147 166.146C131.784 164.898 123.415 168.364 118.384 175.161C109.241 187.514 90.7589 187.514 81.6156 175.161C76.5853 168.364 68.2158 164.898 59.853 166.146C44.6524 168.416 31.5835 155.348 33.8535 140.147C35.1023 131.784 31.6356 123.415 24.8392 118.384C12.4856 109.241 12.4856 90.7589 24.8392 81.6156C31.6356 76.5853 35.1023 68.2158 33.8535 59.853C31.5835 44.6524 44.6524 31.5835 59.853 33.8535C68.2158 35.1023 76.5853 31.6356 81.6156 24.8392Z" fill="#C2D5CB"/>
<path d="M126.667 83.033L116.967 73.333L100.001 90.2997L83.034 73.333L73.334 83.033L90.3007 99.9997L73.334 116.966L83.034 126.666L100.001 109.7L116.967 126.666L126.667 116.966L109.701 99.9997L126.667 83.033Z" fill="#E53935"/>
</svg>
