<svg width="48" height="36" viewBox="0 0 48 36" fill="none" xmlns="http://www.w3.org/2000/svg">
<path d="M28.5 25.5H31.5C32.4 25.5 33 24.9 33 24V19.5C33 18.15 31.95 16.95 30.75 16.65C28.05 15.9 24 15 24 15C24 15 22.05 12.9 20.7 11.55C19.95 10.95 19.05 10.5 18 10.5H7.5C6.6 10.5 5.85 11.1 5.4 11.85L3.3 16.2C3.10137 16.7793 3 17.3876 3 18V24C3 24.9 3.6 25.5 4.5 25.5H7.5" stroke="#133524" stroke-width="2" stroke-linecap="round" stroke-linejoin="round"/>
<path d="M10.5 28.5C12.1569 28.5 13.5 27.1569 13.5 25.5C13.5 23.8431 12.1569 22.5 10.5 22.5C8.84315 22.5 7.5 23.8431 7.5 25.5C7.5 27.1569 8.84315 28.5 10.5 28.5Z" stroke="#133524" stroke-width="2" stroke-linecap="round" stroke-linejoin="round"/>
<path d="M13.5 25.5H22.5" stroke="#133524" stroke-width="2" stroke-linecap="round" stroke-linejoin="round"/>
<path d="M25.5 28.5C27.1569 28.5 28.5 27.1569 28.5 25.5C28.5 23.8431 27.1569 22.5 25.5 22.5C23.8431 22.5 22.5 23.8431 22.5 25.5C22.5 27.1569 23.8431 28.5 25.5 28.5Z" stroke="#133524" stroke-width="2" stroke-linecap="round" stroke-linejoin="round"/>
<path d="M37.9998 18.9587C33.0582 18.9587 29.0415 14.942 29.0415 10.0003C29.0415 5.05866 33.0582 1.04199 37.9998 1.04199C42.9415 1.04199 46.9582 5.05866 46.9582 10.0003C46.9582 14.942 42.9415 18.9587 37.9998 18.9587ZM37.9998 2.29199C33.7498 2.29199 30.2915 5.75033 30.2915 10.0003C30.2915 14.2503 33.7498 17.7087 37.9998 17.7087C42.2498 17.7087 45.7082 14.2503 45.7082 10.0003C45.7082 5.75033 42.2498 2.29199 37.9998 2.29199Z" fill="#133524"/>
<path d="M41.0919 13.2755C40.9835 13.2755 40.8752 13.2505 40.7752 13.1838L38.1919 11.6421C37.5502 11.2588 37.0752 10.4171 37.0752 9.67546V6.25879C37.0752 5.91712 37.3585 5.63379 37.7002 5.63379C38.0419 5.63379 38.3252 5.91712 38.3252 6.25879V9.67546C38.3252 9.97546 38.5752 10.4171 38.8335 10.5671L41.4169 12.1088C41.7169 12.2838 41.8085 12.6671 41.6335 12.9671C41.5085 13.1671 41.3002 13.2755 41.0919 13.2755Z" fill="#133524"/>
</svg>
